<svg x="0" y="0" width="2160" height="1080" viewBox="0 0 2160 1080" xmlns="http://www.w3.org/2000/svg" xmlns:xlink="http://www.w3.org/1999/xlink" xmlns:fi="http://pattern.flaticon.com/"><rect x="0px" y="0px" width="100%" height="100%" opacity="1" fill="#ffffff"/><defs><g transform="matrix(0.1171875 0 0 0.1171875 137 109)" id="L1_0"><circle cx="224" cy="384" r="36" fill="#ffce54"/><path d="M196.378,388h-7.977c2.016,17.977,17.086,32,35.598,32c1.371,0,2.668-0.25,4-0.406   C211.351,417.734,198.245,404.625,196.378,388z" fill="#ffffff" opacity="0.5"/><path d="M252.022,388h7.977c-2.016,17.977-17.086,32-35.598,32   c-1.371,0-2.668-0.25-4-0.406C237.05,417.734,250.155,404.625,252.022,388z" opacity="0.5"/><rect x="188px" y="380px" width="72px" height="8px" opacity="0.2"/><rect x="92px" y="188px" width="264px" height="192px" fill="#656d78"/><rect x="108px" y="204px" width="232px" height="160px" opacity="0.2"/><path d="M135.999,228h-28v40h28c11.047,0,20-8.953,20-20S147.046,228,135.999,228z" opacity="0.2"/><path d="M291.999,452c4.406,0,8,3.602,8,8s-3.594,8-8,8h-136c-4.398,0-8-3.602-8-8s3.602-8,8-8H291.999z" fill="#656d78"/><path d="M155.999,460c0-4.398,3.602-8,8-8h-8c-4.398,0-8,3.602-8,8s3.602,8,8,8h8   C159.601,468,155.999,464.398,155.999,460z" fill="#ffffff" opacity="0.3"/><path d="M291.999,460c0,4.398-3.602,8-8,8h8c4.398,0,8-3.602,8-8s-3.602-8-8-8h-8C288.397,452,291.999,455.602,291.999,460z" opacity="0.2"/><path d="M223.999,396c-11.047,0-20,8.953-20,20v36h40v-36C243.999,404.953,235.046,396,223.999,396z" fill="#aab2bd"/><path d="M227.999,396.406c-1.293-0.266-2.629-0.406-4-0.406c-11.047,0-20,8.953-20,20v28h8v-28   C211.999,406.328,218.87,398.258,227.999,396.406z" fill="#ffffff" opacity="0.5"/><path d="M220.401,396.406c1.293-0.266,2.629-0.406,4-0.406c11.047,0,20,8.953,20,20v28h-8v-28   C236.401,406.328,229.53,398.258,220.401,396.406z" opacity="0.2"/><rect x="123px" y="84px" width="184px" height="104px" fill="#656d78"/><rect x="123px" y="84px" width="184px" height="104px" opacity="0.2"/><path d="M123.796,171.582c2.695,0.277,5.434,0.418,8.203,0.418c44.184,0,80-35.816,80-80c0-2.699-0.141-5.367-0.402-8h-87.801   V171.582z" opacity="0.2"/><circle cx="124" cy="84" r="80" fill="#656d78"/><path d="M59.999,84c0-41.484,31.574-75.582,72-79.598c-2.633-0.262-5.301-0.402-8-0.402   c-44.184,0-80,35.816-80,80s35.816,80,80,80c2.699,0,5.367-0.141,8-0.402C91.573,159.582,59.999,125.484,59.999,84z" fill="#ffffff" opacity="0.2"/><path d="M187.999,84c0,41.484-31.574,75.582-72,79.598c2.633,0.262,5.301,0.402,8,0.402c44.184,0,80-35.816,80-80s-35.816-80-80-80   c-2.699,0-5.367,0.141-8,0.402C156.425,8.418,187.999,42.516,187.999,84z" opacity="0.2"/><path d="M163.999,84c0,22.09-17.914,40-40,40c-22.09,0-40-17.91-40-40s17.91-40,40-40  C146.085,44,163.999,61.91,163.999,84z" fill="#aab2bd"/><path d="M91.999,84c0-20.719,15.816-37.563,36-39.598c-1.336-0.133-2.629-0.402-4-0.402   c-22.09,0-40,17.91-40,40s17.91,40,40,40c1.371,0,2.664-0.27,4-0.402C107.815,121.563,91.999,104.719,91.999,84z" fill="#ffffff" opacity="0.5"/><path d="M155.999,84c0,20.719-15.816,37.563-36,39.598c1.336,0.133,2.629,0.402,4,0.402c22.09,0,40-17.91,40-40s-17.91-40-40-40   c-1.371,0-2.664,0.27-4,0.402C140.183,46.438,155.999,63.281,155.999,84z" opacity="0.2"/><path d="M219.999,92c0,44.184,35.816,80,80,80c2.703,0,5.367-0.141,8-0.402V84h-87.598C220.14,86.633,219.999,89.301,219.999,92z" opacity="0.2"/><path d="M387.999,84c0,44.184-35.813,80-80,80c-44.184,0-80-35.816-80-80s35.816-80,80-80  C352.187,4,387.999,39.816,387.999,84z" fill="#656d78"/><path d="M347.999,84c0,22.09-17.914,40-40,40s-40-17.91-40-40s17.914-40,40-40S347.999,61.91,347.999,84z" fill="#aab2bd"/><path d="M243.999,84c0-41.484,31.578-75.582,72-79.598c-2.633-0.262-5.297-0.402-8-0.402   c-44.184,0-80,35.816-80,80s35.816,80,80,80c2.703,0,5.367-0.141,8-0.402C275.577,159.582,243.999,125.484,243.999,84z" fill="#ffffff" opacity="0.2"/><path d="M275.999,84c0-20.719,15.82-37.563,36-39.598c-1.336-0.133-2.625-0.402-4-0.402   c-22.086,0-40,17.91-40,40s17.914,40,40,40c1.375,0,2.664-0.27,4-0.402C291.819,121.563,275.999,104.719,275.999,84z" fill="#ffffff" opacity="0.5"/><path d="M339.999,84c0,20.719-15.813,37.563-36,39.598c1.336,0.133,2.633,0.402,4,0.402c22.094,0,40-17.91,40-40s-17.906-40-40-40   c-1.367,0-2.664,0.27-4,0.402C324.187,46.438,339.999,63.281,339.999,84z" opacity="0.2"/><path d="M371.999,84c0,41.484-31.57,75.582-72,79.598c2.633,0.262,5.305,0.402,8,0.402c44.188,0,80-35.816,80-80s-35.813-80-80-80   c-2.695,0-5.367,0.141-8,0.402C340.429,8.418,371.999,42.516,371.999,84z" opacity="0.2"/><circle cx="308" cy="84" r="16" fill="#656d78"/><path d="M299.999,84c0-7.445,5.109-13.648,12-15.434c-1.281-0.332-2.609-0.566-4-0.566   c-8.836,0-16,7.164-16,16s7.164,16,16,16c1.391,0,2.719-0.234,4-0.566C305.108,97.648,299.999,91.445,299.999,84z" fill="#ffffff" opacity="0.2"/><path d="M315.999,84c0,7.445-5.109,13.648-12,15.434c1.289,0.332,2.609,0.566,4,0.566c8.836,0,16-7.164,16-16s-7.164-16-16-16   c-1.391,0-2.711,0.234-4,0.566C310.89,70.352,315.999,76.555,315.999,84z" opacity="0.2"/><path d="M112.687,72.688c-6.242,6.242-6.25,16.375,0,22.625l39.598,39.594c6.246,6.25,16.383,6.25,22.625,0  c6.246-6.234,6.25-16.375,0-22.625l-39.598-39.594C129.065,66.438,118.929,66.445,112.687,72.688z" fill="#ccd1d9"/><path d="M160.284,126.906l-39.598-39.594c-4.836-4.836-5.879-11.977-3.234-17.859   c-1.723,0.773-3.352,1.82-4.766,3.234c-6.242,6.242-6.25,16.375,0,22.625l39.598,39.594c6.246,6.25,16.383,6.25,22.625,0   c1.414-1.41,2.465-3.039,3.238-4.762C172.265,132.789,165.116,131.742,160.284,126.906z" fill="#ffffff" opacity="0.5"/><path d="M227.999,160c0,6.625-5.371,11.996-12,11.996c-6.625,0-11.996-5.371-11.996-11.996  c0-6.629,5.371-12,11.996-12C222.628,148,227.999,153.371,227.999,160z" fill="#ffce54"/><path d="M212.003,160c0-5.219,3.348-9.613,7.996-11.266c-1.258-0.445-2.59-0.734-4-0.734   c-6.625,0-11.996,5.371-11.996,12c0,6.625,5.371,11.996,11.996,11.996c1.41,0,2.742-0.289,4-0.734   C215.351,169.609,212.003,165.215,212.003,160z" fill="#ffffff" opacity="0.5"/><path d="M219.999,159.996c0,5.219-3.348,9.613-7.996,11.266c1.258,0.445,2.59,0.734,4,0.734c6.625,0,11.996-5.371,11.996-12   c0-6.625-5.371-11.996-11.996-11.996c-1.41,0-2.742,0.289-4,0.734C216.651,150.387,219.999,154.781,219.999,159.996z" opacity="0.2"/><g><path d="M235.999,248.625c0,6.625-5.371,11.996-12,11.996c-6.625,0-11.996-5.371-11.996-11.996   c0-6.629,5.371-12,11.996-12C230.628,236.625,235.999,241.996,235.999,248.625z" fill="#ffce54"/><path d="M323.999,248.625c0,6.625-5.375,11.996-12,11.996s-12-5.371-12-11.996c0-6.629,5.375-12,12-12   S323.999,241.996,323.999,248.625z" fill="#ffce54"/><circle cx="312" cy="320" r="12" fill="#ffce54"/><circle cx="136" cy="320" r="11" fill="#ffce54"/></g><path d="M135.999,236.625c6.641,0,12,5.359,12,12s-5.359,12-12,12h-76v-4v-16v-2.719v-1.281H135.999z" fill="#ed5565"/><path d="M147.269,252.625c0.445-1.258,0.73-2.59,0.73-4c0-6.641-5.359-12-12-12h-76v1.281v2.719v4h76   C141.229,244.625,145.62,247.969,147.269,252.625z" fill="#ffffff" opacity="0.3"/><path d="M59.999,240.625 59.999,256.625 43.999,256.625 19.999,268.625 19.999,228.625   43.362,240.625 43.999,240.625z" fill="#656d78"/><path d="M43.999,240.625 43.362,240.625 19.999,228.625 19.999,236.625 43.362,248.625    43.999,248.625 59.999,248.625 59.999,240.625z" fill="#ffffff" opacity="0.2"/><rect x="356px" y="228px" width="24px" height="72px" fill="#aab2bd"/><rect x="380px" y="244px" width="32px" height="40px" fill="#ccd1d9"/><path d="M491.999,324 411.999,284 411.999,244 491.999,204z" fill="#656d78"/><path d="M411.999,244 411.999,260 491.999,220 491.999,204z" fill="#ffffff" opacity="0.2"/><path d="M411.999,284 411.999,268 491.999,308 491.999,324z" opacity="0.2"/><g><rect x="172px" y="468px" width="16px" height="40px" fill="#aab2bd"/><rect x="260px" y="468px" width="16px" height="40px" fill="#aab2bd"/><rect x="212px" y="468px" width="24px" height="40px" fill="#aab2bd"/></g><path d="M220.003,248.629c0-5.219,3.348-9.613,7.996-11.266c-1.258-0.445-2.59-0.734-4-0.734   c-6.625,0-11.996,5.371-11.996,12c0,6.625,5.371,11.996,11.996,11.996c1.41,0,2.742-0.289,4-0.734   C223.351,258.238,220.003,253.844,220.003,248.629z" fill="#ffffff" opacity="0.5"/><path d="M227.999,248.625c0,5.219-3.348,9.613-7.996,11.266c1.258,0.445,2.59,0.734,4,0.734c6.625,0,11.996-5.371,11.996-12   c0-6.625-5.371-11.996-11.996-11.996c-1.41,0-2.742,0.289-4,0.734C224.651,239.016,227.999,243.41,227.999,248.625z" opacity="0.2"/><path d="M131.999,320c0-5.219,3.348-9.609,7.996-11.266c-1.258-0.445-2.59-0.734-4-0.734   c-6.625,0-11.996,5.375-11.996,12s5.371,12,11.996,12c1.41,0,2.742-0.297,4-0.734C135.347,329.609,131.999,325.219,131.999,320z" fill="#ffffff" opacity="0.5"/><path d="M139.995,320c0,5.219-3.348,9.609-7.996,11.266c1.258,0.438,2.59,0.734,4,0.734c6.625,0,11.996-5.375,11.996-12   s-5.371-12-11.996-12c-1.41,0-2.742,0.289-4,0.734C136.647,310.391,139.995,314.781,139.995,320z" opacity="0.2"/><path d="M308.007,248.629c0-5.219,3.344-9.613,7.992-11.266c-1.258-0.445-2.586-0.734-4-0.734   c-6.625,0-11.992,5.371-11.992,12c0,6.625,5.367,11.996,11.992,11.996c1.414,0,2.742-0.289,4-0.734   C311.351,258.238,308.007,253.844,308.007,248.629z" fill="#ffffff" opacity="0.5"/><path d="M315.999,248.625c0,5.219-3.344,9.613-7.992,11.266c1.258,0.445,2.586,0.734,4,0.734c6.625,0,11.992-5.371,11.992-12   c0-6.625-5.367-11.996-11.992-11.996c-1.414,0-2.742,0.289-4,0.734C312.655,239.016,315.999,243.41,315.999,248.625z" opacity="0.2"/><path d="M308.007,320c0-5.219,3.344-9.609,7.992-11.266c-1.258-0.445-2.586-0.734-4-0.734   c-6.625,0-11.992,5.375-11.992,12s5.367,12,11.992,12c1.414,0,2.742-0.297,4-0.734C311.351,329.609,308.007,325.219,308.007,320z" fill="#ffffff" opacity="0.5"/><path d="M315.999,320c0,5.219-3.344,9.609-7.992,11.266c1.258,0.438,2.586,0.734,4,0.734c6.625,0,11.992-5.375,11.992-12   s-5.367-12-11.992-12c-1.414,0-2.742,0.289-4,0.734C312.655,310.391,315.999,314.781,315.999,320z" opacity="0.2"/><rect x="92px" y="228px" width="16px" height="8px" opacity="0.2"/><rect x="92px" y="260px" width="16px" height="8px" opacity="0.2"/><rect x="92px" y="188px" width="8px" height="40px" fill="#ffffff" opacity="0.2"/><rect x="92px" y="268px" width="8px" height="112px" fill="#ffffff" opacity="0.2"/><rect x="348px" y="188px" width="8px" height="192px" opacity="0.2"/><rect x="108px" y="204px" width="8px" height="24px" fill="#ffffff" opacity="0.2"/><rect x="108px" y="268px" width="8px" height="96px" fill="#ffffff" opacity="0.2"/><rect x="331px" y="204px" width="8px" height="160px" opacity="0.2"/><rect x="364px" y="244px" width="16px" height="8px" opacity="0.2"/><rect x="364px" y="276px" width="16px" height="8px" opacity="0.2"/><rect x="356px" y="228px" width="8px" height="72px" opacity="0.2"/><rect x="380px" y="244px" width="8px" height="40px" opacity="0.2"/><rect x="404px" y="244px" width="8px" height="40px" opacity="0.2"/><rect x="364px" y="252px" width="16px" height="8px" fill="#ffffff" opacity="0.5"/><rect x="364px" y="228px" width="16px" height="8px" fill="#ffffff" opacity="0.5"/><rect x="388px" y="244px" width="16px" height="8px" fill="#ffffff" opacity="0.5"/><rect x="388px" y="276px" width="16px" height="8px" opacity="0.2"/><rect x="204px" y="444px" width="40px" height="8px" opacity="0.2"/><rect x="171px" y="468px" width="16px" height="8px" opacity="0.2"/><rect x="212px" y="468px" width="23px" height="8px" opacity="0.2"/><rect x="260px" y="468px" width="16px" height="8px" opacity="0.2"/><rect x="172px" y="476px" width="8px" height="32px" fill="#ffffff" opacity="0.5"/><rect x="212px" y="476px" width="8px" height="32px" fill="#ffffff" opacity="0.5"/><rect x="228px" y="476px" width="8px" height="32px" opacity="0.2"/><rect x="260px" y="476px" width="8px" height="32px" fill="#ffffff" opacity="0.5"/><g><path d="M307.999,168c-46.316,0-84-37.684-84-84s37.684-84,84-84c46.32,0,84,37.684,84,84   S354.319,168,307.999,168z M307.999,8c-41.906,0-76,34.094-76,76s34.094,76,76,76s76-34.094,76-76S349.905,8,307.999,8z" fill="#3a3847"/><path d="M307.999,128c-24.258,0-44-19.738-44-44s19.742-44,44-44c24.266,0,44,19.738,44,44   S332.265,128,307.999,128z M307.999,48c-19.852,0-36,16.148-36,36s16.148,36,36,36s36-16.148,36-36S327.851,48,307.999,48z" fill="#3a3847"/><path d="M307.999,104c-11.023,0-20-8.973-20-20s8.977-20,20-20c11.031,0,20,8.973,20,20   S319.03,104,307.999,104z M307.999,72c-6.617,0-12,5.383-12,12s5.383,12,12,12s12-5.383,12-12S314.616,72,307.999,72z" fill="#3a3847"/><path d="M123.999,168c-22.438,0-43.531-8.734-59.398-24.602c-32.754-32.754-32.754-86.043,0-118.797   C80.468,8.734,101.562,0,123.999,0s43.531,8.734,59.398,24.602c32.754,32.754,32.754,86.043,0,118.797   C167.53,159.266,146.437,168,123.999,168z M123.999,8c-20.301,0-39.387,7.902-53.742,22.258   c-29.633,29.633-29.633,77.852,0,107.484C84.612,152.098,103.698,160,123.999,160s39.387-7.902,53.742-22.258   c29.633-29.633,29.633-77.852,0-107.484C163.386,15.902,144.3,8,123.999,8z" fill="#3a3847"/><path d="M118.351,127.602c-0.188,0-0.375-0.012-0.566-0.039c-9.5-1.355-18.109-5.66-24.898-12.453   C84.578,106.805,80,95.758,80,84.005c0-11.758,4.578-22.805,12.887-31.113s19.355-12.883,31.109-12.883c0.004,0,0.008,0,0.012,0   c11.754,0,22.801,4.574,31.105,12.883c6.789,6.785,11.094,15.387,12.441,24.875c0.309,2.188-1.211,4.211-3.398,4.523   c-2.203,0.289-4.211-1.215-4.523-3.398c-1.102-7.758-4.621-14.793-10.176-20.344c-6.793-6.797-15.832-10.539-25.449-10.539   c-0.004,0-0.004,0-0.008,0c-9.617,0-18.66,3.742-25.457,10.539C91.742,65.345,88,74.388,88,84.005s3.746,18.652,10.543,25.449   c5.555,5.559,12.598,9.082,20.367,10.188c2.188,0.313,3.711,2.34,3.398,4.523C122.022,126.16,120.312,127.602,118.351,127.602z" fill="#3a3847"/><path d="M355.999,384h-264c-2.211,0-4-1.789-4-4s1.789-4,4-4h260V192h-260c-2.211,0-4-1.789-4-4s1.789-4,4-4   h264c2.211,0,4,1.789,4,4v192C359.999,382.211,358.21,384,355.999,384z" fill="#3a3847"/><path d="M339.999,368h-232c-2.211,0-4-1.789-4-4s1.789-4,4-4h228V208h-228c-2.211,0-4-1.789-4-4s1.789-4,4-4   h232c2.211,0,4,1.789,4,4v160C343.999,366.211,342.21,368,339.999,368z" fill="#3a3847"/><path d="M307.999,184c-2.211,0-4-1.789-4-4v-8c0-2.211,1.789-4,4-4s4,1.789,4,4v8   C311.999,182.211,310.21,184,307.999,184z" fill="#3a3847"/><path d="M123.999,184c-2.211,0-4-1.789-4-4v-8c0-2.211,1.789-4,4-4s4,1.789,4,4v8   C127.999,182.211,126.21,184,123.999,184z" fill="#3a3847"/><path d="M219.999,88h-8c-2.211,0-4-1.789-4-4s1.789-4,4-4h8c2.211,0,4,1.789,4,4S222.21,88,219.999,88z" fill="#3a3847"/><path d="M163.597,143.594c-5.344,0-10.367-2.082-14.141-5.859l-39.598-39.594   c-3.777-3.777-5.859-8.801-5.855-14.145c0-5.34,2.082-10.363,5.855-14.137c7.555-7.551,20.734-7.559,28.281,0l39.598,39.594   c3.777,3.777,5.859,8.801,5.859,14.148c-0.004,5.344-2.082,10.363-5.863,14.137C173.964,141.512,168.944,143.594,163.597,143.594z    M124.003,72.004c-3.207,0-6.223,1.246-8.488,3.512s-3.512,5.277-3.512,8.48c0,3.207,1.246,6.223,3.512,8.488l39.598,39.594   c4.535,4.535,12.445,4.535,16.965,0c2.27-2.262,3.52-5.273,3.52-8.48s-1.25-6.223-3.516-8.488l-39.598-39.594   C130.218,73.25,127.206,72.004,124.003,72.004z" fill="#3a3847"/><path d="M215.999,176c-8.824,0-16-7.176-16-16s7.176-16,16-16s16,7.176,16,16S224.823,176,215.999,176z    M215.999,152c-4.41,0-8,3.59-8,8s3.59,8,8,8s8-3.59,8-8S220.409,152,215.999,152z" fill="#3a3847"/><path d="M223.999,264c-8.824,0-16-7.176-16-16s7.176-16,16-16s16,7.176,16,16S232.823,264,223.999,264z    M223.999,240c-4.41,0-8,3.59-8,8s3.59,8,8,8s8-3.59,8-8S228.409,240,223.999,240z" fill="#3a3847"/><path d="M311.999,336c-8.82,0-16-7.172-16-16s7.18-16,16-16c8.828,0,16,7.172,16,16S320.827,336,311.999,336   z M311.999,312c-4.406,0-8,3.594-8,8s3.594,8,8,8c4.414,0,8-3.594,8-8S316.413,312,311.999,312z" fill="#3a3847"/><path d="M135.999,336c-8.824,0-16-7.172-16-16s7.176-16,16-16s16,7.172,16,16S144.823,336,135.999,336z    M135.999,312c-4.41,0-8,3.594-8,8s3.59,8,8,8s8-3.594,8-8S140.409,312,135.999,312z" fill="#3a3847"/><path d="M311.999,264c-8.82,0-16-7.176-16-16s7.18-16,16-16c8.828,0,16,7.176,16,16S320.827,264,311.999,264   z M311.999,240c-4.406,0-8,3.59-8,8s3.594,8,8,8c4.414,0,8-3.59,8-8S316.413,240,311.999,240z" fill="#3a3847"/><path d="M135.999,240h-76c-2.211,0-4-1.789-4-4s1.789-4,4-4h76c2.211,0,4,1.789,4,4S138.21,240,135.999,240z   " fill="#3a3847"/><path d="M135.999,264h-76c-2.211,0-4-1.789-4-4s1.789-4,4-4h76c2.211,0,4,1.789,4,4S138.21,264,135.999,264z   " fill="#3a3847"/><path d="M59.999,264c-2.211,0-4-1.789-4-4v-22.75c0-2.211,1.789-4,4-4s4,1.789,4,4V260   C63.999,262.211,62.21,264,59.999,264z" fill="#3a3847"/><path d="M59.999,244h-16c-2.211,0-4-1.789-4-4s1.789-4,4-4h16c2.211,0,4,1.789,4,4S62.21,244,59.999,244z" fill="#3a3847"/><path d="M59.999,260h-16c-2.211,0-4-1.789-4-4s1.789-4,4-4h16c2.211,0,4,1.789,4,4S62.21,260,59.999,260z" fill="#3a3847"/><path d="M43.37,244c-0.613,0-1.238-0.141-1.824-0.441l-23.375-12c-1.965-1.008-2.738-3.422-1.73-5.387   c1.008-1.957,3.418-2.734,5.387-1.73l23.375,12c1.965,1.008,2.738,3.422,1.73,5.387C46.226,243.207,44.823,244,43.37,244z" fill="#3a3847"/><path d="M20.003,272c-1.469,0-2.879-0.813-3.582-2.211c-0.988-1.977-0.188-4.383,1.789-5.367l24-12   c1.973-0.988,4.375-0.191,5.367,1.789c0.988,1.977,0.188,4.379-1.789,5.367l-24,12C21.214,271.859,20.604,272,20.003,272z" fill="#3a3847"/><path d="M19.999,272c-2.211,0-4-1.789-4-4v-40c0-2.211,1.789-4,4-4s4,1.789,4,4v40   C23.999,270.211,22.21,272,19.999,272z" fill="#3a3847"/><path d="M135.999,264c-2.211,0-4-1.789-4-4s1.789-4,4-4c4.41,0,8-3.59,8-8s-3.59-8-8-8c-2.211,0-4-1.789-4-4   s1.789-4,4-4c8.824,0,16,7.176,16,16S144.823,264,135.999,264z" fill="#3a3847"/><path d="M107.999,232c-2.211,0-4-1.789-4-4v-24c0-2.211,1.789-4,4-4s4,1.789,4,4v24   C111.999,230.211,110.21,232,107.999,232z" fill="#3a3847"/><path d="M107.999,368c-2.211,0-4-1.789-4-4v-96c0-2.211,1.789-4,4-4s4,1.789,4,4v96   C111.999,366.211,110.21,368,107.999,368z" fill="#3a3847"/><path d="M91.999,384c-2.211,0-4-1.789-4-4V268c0-2.211,1.789-4,4-4s4,1.789,4,4v112   C95.999,382.211,94.21,384,91.999,384z" fill="#3a3847"/><path d="M91.999,232c-2.211,0-4-1.789-4-4v-40c0-2.211,1.789-4,4-4s4,1.789,4,4v40   C95.999,230.211,94.21,232,91.999,232z" fill="#3a3847"/><path d="M379.999,232h-16c-2.211,0-4-1.789-4-4s1.789-4,4-4h16c2.211,0,4,1.789,4,4S382.21,232,379.999,232z   " fill="#3a3847"/><path d="M379.999,248c-2.211,0-4-1.789-4-4v-16c0-2.211,1.789-4,4-4s4,1.789,4,4v16   C383.999,246.211,382.21,248,379.999,248z" fill="#3a3847"/><path d="M379.999,304c-2.211,0-4-1.789-4-4v-16c0-2.211,1.789-4,4-4s4,1.789,4,4v16   C383.999,302.211,382.21,304,379.999,304z" fill="#3a3847"/><path d="M379.999,304h-16c-2.211,0-4-1.789-4-4s1.789-4,4-4h16c2.211,0,4,1.789,4,4S382.21,304,379.999,304z   " fill="#3a3847"/><path d="M379.999,256h-16c-2.211,0-4-1.789-4-4s1.789-4,4-4h16c2.211,0,4,1.789,4,4S382.21,256,379.999,256z   " fill="#3a3847"/><path d="M379.999,280c-2.211,0-4-1.789-4-4v-24c0-2.211,1.789-4,4-4s4,1.789,4,4v24   C383.999,278.211,382.21,280,379.999,280z" fill="#3a3847"/><path d="M379.999,280h-16c-2.211,0-4-1.789-4-4s1.789-4,4-4h16c2.211,0,4,1.789,4,4S382.21,280,379.999,280z   " fill="#3a3847"/><path d="M403.999,248h-16c-2.211,0-4-1.789-4-4s1.789-4,4-4h16c2.211,0,4,1.789,4,4S406.21,248,403.999,248z   " fill="#3a3847"/><path d="M403.999,288h-16c-2.211,0-4-1.789-4-4s1.789-4,4-4h16c2.211,0,4,1.789,4,4S406.21,288,403.999,288z   " fill="#3a3847"/><path d="M412.007,248c-1.469,0-2.883-0.809-3.586-2.211c-0.984-1.977-0.188-4.379,1.789-5.367l80-40   c1.984-0.988,4.375-0.191,5.367,1.789c0.992,1.977,0.188,4.379-1.789,5.367l-80,40C413.218,247.863,412.608,248,412.007,248z" fill="#3a3847"/><path d="M491.999,328c-0.602,0-1.211-0.141-1.789-0.422l-80-40c-1.977-0.984-2.773-3.391-1.789-5.367   c0.992-1.977,3.391-2.773,5.367-1.789l80,40c1.977,0.984,2.781,3.391,1.789,5.367C494.874,327.188,493.468,328,491.999,328z" fill="#3a3847"/><path d="M411.999,288c-2.211,0-4-1.789-4-4v-40c0-2.211,1.789-4,4-4s4,1.789,4,4v40   C415.999,286.211,414.21,288,411.999,288z" fill="#3a3847"/><path d="M491.999,328c-2.211,0-4-1.789-4-4V204c0-2.211,1.789-4,4-4s4,1.789,4,4v120   C495.999,326.211,494.21,328,491.999,328z" fill="#3a3847"/><path d="M196.019,410.641c-1.168,0-2.32-0.508-3.113-1.484c-5.742-7.094-8.906-16.023-8.906-25.156   c0-2.211,1.789-4,4-4s4,1.789,4,4c0,7.406,2.465,14.367,7.125,20.125c1.391,1.719,1.125,4.234-0.59,5.625   C197.792,410.344,196.901,410.641,196.019,410.641z" fill="#3a3847"/><path d="M252.003,410.625c-0.883,0-1.77-0.289-2.512-0.891c-1.715-1.391-1.984-3.906-0.594-5.625   c4.578-5.672,7.102-12.813,7.102-20.109c0-2.211,1.789-4,4-4s4,1.789,4,4c0,9.125-3.152,18.047-8.883,25.141   C254.327,410.117,253.171,410.625,252.003,410.625z" fill="#3a3847"/><path d="M243.999,420c-2.211,0-4-1.789-4-4c0-8.828-7.176-16-16-16s-16,7.172-16,16c0,2.211-1.789,4-4,4   s-4-1.789-4-4c0-13.234,10.766-24,24-24s24,10.766,24,24C247.999,418.211,246.21,420,243.999,420z" fill="#3a3847"/><path d="M203.999,448c-2.211,0-4-1.789-4-4v-28c0-2.211,1.789-4,4-4s4,1.789,4,4v28   C207.999,446.211,206.21,448,203.999,448z" fill="#3a3847"/><path d="M243.999,448c-2.211,0-4-1.789-4-4v-28c0-2.211,1.789-4,4-4s4,1.789,4,4v28   C247.999,446.211,246.21,448,243.999,448z" fill="#3a3847"/><path d="M203.999,432h-15.984c-2.211,0-4-1.789-4-4s1.789-4,4-4h15.984c2.211,0,4,1.789,4,4   S206.21,432,203.999,432z" fill="#3a3847"/><path d="M188.015,440c-2.211,0-4-1.789-4-4v-16c0-2.211,1.789-4,4-4s4,1.789,4,4v16   C192.015,438.211,190.226,440,188.015,440z" fill="#3a3847"/><path d="M291.999,456h-136c-2.211,0-4-1.789-4-4s1.789-4,4-4h136c2.211,0,4,1.789,4,4   S294.21,456,291.999,456z" fill="#3a3847"/><path d="M155.999,472c-6.617,0-12-5.383-12-12s5.383-12,12-12c2.211,0,4,1.789,4,4s-1.789,4-4,4   c-2.207,0-4,1.797-4,4s1.793,4,4,4c2.211,0,4,1.789,4,4S158.21,472,155.999,472z" fill="#3a3847"/><path d="M291.999,472c-2.211,0-4-1.789-4-4s1.789-4,4-4s4-1.797,4-4s-1.789-4-4-4s-4-1.789-4-4s1.789-4,4-4   c6.617,0,12,5.383,12,12S298.616,472,291.999,472z" fill="#3a3847"/><path d="M291.999,472h-136c-2.211,0-4-1.789-4-4s1.789-4,4-4h136c2.211,0,4,1.789,4,4   S294.21,472,291.999,472z" fill="#3a3847"/><path d="M275.999,512c-2.211,0-4-1.789-4-4v-32c0-2.211,1.789-4,4-4s4,1.789,4,4v32   C279.999,510.211,278.21,512,275.999,512z" fill="#3a3847"/><path d="M259.999,512c-2.211,0-4-1.789-4-4v-32c0-2.211,1.789-4,4-4s4,1.789,4,4v32   C263.999,510.211,262.21,512,259.999,512z" fill="#3a3847"/><path d="M235.999,512c-2.211,0-4-1.789-4-4v-32c0-2.211,1.789-4,4-4s4,1.789,4,4v32   C239.999,510.211,238.21,512,235.999,512z" fill="#3a3847"/><path d="M211.999,512c-2.211,0-4-1.789-4-4v-32c0-2.211,1.789-4,4-4s4,1.789,4,4v32   C215.999,510.211,214.21,512,211.999,512z" fill="#3a3847"/><path d="M187.999,512c-2.211,0-4-1.789-4-4v-32c0-2.211,1.789-4,4-4s4,1.789,4,4v32   C191.999,510.211,190.21,512,187.999,512z" fill="#3a3847"/><path d="M171.999,512c-2.211,0-4-1.789-4-4v-32c0-2.211,1.789-4,4-4s4,1.789,4,4v32   C175.999,510.211,174.21,512,171.999,512z" fill="#3a3847"/></g></g><g transform="matrix(0.1171875 0 0 0.1171875 88 2)" id="L1_1"><rect x="184px" y="324px" width="143px" height="16px" fill="#eab081"/><path d="M327.751,324 312.618,324 291.267,340 323.392,340 327.751,336.734z" opacity="0.2"/><path d="M183.685,324 198.817,324 220.169,340 188.044,340 183.685,336.734z" opacity="0.2"/><rect x="161px" y="452px" width="188px" height="16px" fill="#eab081"/><path d="M174.45,452 161.665,461.578 161.665,468 185.337,468 206.669,452z" opacity="0.2"/><path d="M336.376,452 349.165,461.578 349.165,468 325.493,468 304.157,452z" opacity="0.2"/><rect x="108px" y="260px" width="296px" height="16px" fill="#eab081"/><g><path d="M417.603,500L214.247,347.602L108.005,268v-8h-32v8l160.156,120.156l76.645,57.445L396.009,508   h13.594C414.009,508,417.603,504.398,417.603,500z" fill="#f2c397"/><rect x="132px" y="4px" width="16px" height="216px" fill="#f2c397"/><rect x="364px" y="4px" width="16px" height="216px" fill="#f2c397"/></g><path d="M264.001,64.398 265.923,76 256.001,70.559 246.079,76 248.001,64.398 240.001,56.238   251.04,54.559 256.001,44 260.962,54.559 272.001,56.238z" fill="#ffce54"/><path d="M280.103,396.953 264.103,384.969 264.103,384.969 248.001,372.898 231.903,384.969 236.161,388.156    248.001,397.031 248.001,397.031 264.001,409.031z" opacity="0.2"/><path d="M94.399,500l203.359-152.398L404.001,268v-8h32v8L275.845,388.156L199.2,445.602  L116.001,508h-13.602C98.001,508,94.399,504.398,94.399,500z" id="SVGCleanerId_0" fill="#f2c397"/><path d="M94.399,500l203.359-152.398L404.001,268v-8h32v8L275.845,388.156   L199.2,445.602L116.001,508h-13.602C98.001,508,94.399,504.398,94.399,500z" id="SVGCleanerId_0_1_" fill="#f2c397"/><g><path d="M436.001,244 436.001,260 404.001,260 404.001,244 428.001,244z" fill="#ffd2a6"/><path d="M108.001,244 108.001,260 76.001,260 76.001,244 100.001,244z" fill="#ffd2a6"/><path d="M436.001,156 436.001,172 428.001,172 404.001,172 404.001,156z" fill="#ffd2a6"/></g><path d="M356.001,132 404.001,156 404.001,172 356.001,148.48z" fill="#f2c397"/><g><path d="M404.001,156 356.001,132 364.001,132 388.001,132 436.001,156z" fill="#ffd2a6"/><path d="M404.001,244 356.001,220 364.001,220 388.001,220 436.001,244z" fill="#ffd2a6"/></g><path d="M265.923,76l-1.922-11.602l8-8.16l-11.039-1.68L256.001,44l-4.961,10.559l-11.039,1.68l8,8.16  L246.079,76l9.922-5.441L265.923,76z M132.001,20h248v80h-16h-216h-16V20z" fill="#656d78"/><rect x="76px" y="156px" width="32px" height="16px" fill="#ffd2a6"/><path d="M156.001,132 156.001,148.48 144.802,153.922 108.001,172 108.001,156z" fill="#f2c397"/><g><path d="M76.001,156 124.001,132 148.001,132 156.001,132 108.001,156z" fill="#ffd2a6"/><path d="M76.001,244 124.001,220 148.001,220 156.001,220 108.001,244z" fill="#ffd2a6"/></g><path d="M164.001,236 348.001,236 356.001,236 356.001,220 404.001,244 404.001,260 396.001,260   116.001,260 108.001,260 108.001,244 156.001,220 156.001,236z" fill="#656d78"/><rect x="132px" y="20px" width="16px" height="80px" opacity="0.2"/><rect x="364px" y="20px" width="16px" height="80px" opacity="0.2"/><g><rect x="84px" y="172px" width="16px" height="72px" fill="#f2c397"/><rect x="412px" y="172px" width="16px" height="72px" fill="#f2c397"/></g><rect x="76px" y="260px" width="360px" height="8px" opacity="0.2"/><rect x="84px" y="172px" width="16px" height="8px" opacity="0.2"/><rect x="132px" y="124px" width="16px" height="8px" opacity="0.2"/><rect x="84px" y="236px" width="16px" height="8px" opacity="0.2"/><rect x="132px" y="212px" width="16px" height="8px" opacity="0.2"/><path d="M148.001,160.367 132.001,168 132.001,160 148.001,152.367z" opacity="0.2"/><rect x="412px" y="172px" width="16px" height="8px" opacity="0.2"/><rect x="364px" y="124px" width="16px" height="8px" opacity="0.2"/><rect x="364px" y="12px" width="16px" height="8px" opacity="0.2"/><rect x="132px" y="12px" width="16px" height="8px" opacity="0.2"/><rect x="132px" y="100px" width="16px" height="8px" opacity="0.2"/><rect x="364px" y="100px" width="16px" height="8px" opacity="0.2"/><rect x="412px" y="236px" width="16px" height="8px" opacity="0.2"/><rect x="364px" y="212px" width="16px" height="8px" opacity="0.2"/><path d="M364.001,160.367 380.001,168 380.001,160 364.001,152.367z" opacity="0.2"/><path d="M140.001,212 132.001,212 132.001,168 140.001,164z" fill="#ffffff" opacity="0.5"/><path d="M380.001,212 372.001,212 372.001,164.184 380.001,168z" opacity="0.2"/><rect x="84px" y="180px" width="8px" height="56px" fill="#ffffff" opacity="0.5"/><rect x="420px" y="180px" width="8px" height="56px" opacity="0.2"/><rect x="76px" y="156px" width="8px" height="16px" fill="#ffffff" opacity="0.5"/><rect x="100px" y="156px" width="8px" height="16px" opacity="0.2"/><rect x="76px" y="244px" width="8px" height="16px" fill="#ffffff" opacity="0.5"/><rect x="100px" y="244px" width="8px" height="16px" opacity="0.2"/><rect x="404px" y="156px" width="8px" height="16px" fill="#ffffff" opacity="0.5"/><rect x="428px" y="156px" width="8px" height="16px" opacity="0.2"/><rect x="404px" y="244px" width="8px" height="16px" fill="#ffffff" opacity="0.5"/><rect x="428px" y="244px" width="8px" height="16px" opacity="0.2"/><rect x="132px" y="108px" width="8px" height="16px" fill="#ffffff" opacity="0.5"/><rect x="372px" y="108px" width="8px" height="16px" opacity="0.2"/><g><path d="M132.001,24c-2.211,0-4-1.789-4-4V4c0-2.211,1.789-4,4-4s4,1.789,4,4v16   C136.001,22.211,134.212,24,132.001,24z" fill="#3a3847"/><path d="M148.001,8h-16c-2.211,0-4-1.789-4-4s1.789-4,4-4h16c2.211,0,4,1.789,4,4S150.212,8,148.001,8z" fill="#3a3847"/><path d="M148.001,24c-2.211,0-4-1.789-4-4V4c0-2.211,1.789-4,4-4s4,1.789,4,4v16   C152.001,22.211,150.212,24,148.001,24z" fill="#3a3847"/><path d="M356.001,240h-200c-2.211,0-4-1.789-4-4s1.789-4,4-4h200c2.211,0,4,1.789,4,4   S358.212,240,356.001,240z" fill="#3a3847"/><path d="M404.001,264h-296c-2.211,0-4-1.789-4-4s1.789-4,4-4h296c2.211,0,4,1.789,4,4   S406.212,264,404.001,264z" fill="#3a3847"/><path d="M393.321,280H118.685c-2.211,0-4-1.789-4-4s1.789-4,4-4h274.637c2.211,0,4,1.789,4,4   S395.532,280,393.321,280z" fill="#3a3847"/><path d="M380.001,24h-248c-2.211,0-4-1.789-4-4s1.789-4,4-4h248c2.211,0,4,1.789,4,4S382.212,24,380.001,24z   " fill="#3a3847"/><path d="M380.001,104h-248c-2.211,0-4-1.789-4-4s1.789-4,4-4h248c2.211,0,4,1.789,4,4   S382.212,104,380.001,104z" fill="#3a3847"/><path d="M148.001,136c-2.211,0-4-1.789-4-4v-32c0-2.211,1.789-4,4-4s4,1.789,4,4v32   C152.001,134.211,150.212,136,148.001,136z" fill="#3a3847"/><path d="M132.001,136c-2.211,0-4-1.789-4-4v-32c0-2.211,1.789-4,4-4s4,1.789,4,4v32   C136.001,134.211,134.212,136,132.001,136z" fill="#3a3847"/><path d="M132.001,104c-2.211,0-4-1.789-4-4V20c0-2.211,1.789-4,4-4s4,1.789,4,4v80   C136.001,102.211,134.212,104,132.001,104z" fill="#3a3847"/><path d="M148.001,88c-2.211,0-4-1.789-4-4V36c0-2.211,1.789-4,4-4s4,1.789,4,4v48   C152.001,86.211,150.212,88,148.001,88z" fill="#3a3847"/><path d="M380.001,24c-2.211,0-4-1.789-4-4V4c0-2.211,1.789-4,4-4s4,1.789,4,4v16   C384.001,22.211,382.212,24,380.001,24z" fill="#3a3847"/><path d="M380.001,8h-16c-2.211,0-4-1.789-4-4s1.789-4,4-4h16c2.211,0,4,1.789,4,4S382.212,8,380.001,8z" fill="#3a3847"/><path d="M364.001,24c-2.211,0-4-1.789-4-4V4c0-2.211,1.789-4,4-4s4,1.789,4,4v16   C368.001,22.211,366.212,24,364.001,24z" fill="#3a3847"/><path d="M364.001,136c-2.211,0-4-1.789-4-4v-32c0-2.211,1.789-4,4-4s4,1.789,4,4v32   C368.001,134.211,366.212,136,364.001,136z" fill="#3a3847"/><path d="M380.001,136c-2.211,0-4-1.789-4-4v-32c0-2.211,1.789-4,4-4s4,1.789,4,4v32   C384.001,134.211,382.212,136,380.001,136z" fill="#3a3847"/><path d="M380.001,104c-2.211,0-4-1.789-4-4V20c0-2.211,1.789-4,4-4s4,1.789,4,4v80   C384.001,102.211,382.212,104,380.001,104z" fill="#3a3847"/><path d="M364.001,88c-2.211,0-4-1.789-4-4V36c0-2.211,1.789-4,4-4s4,1.789,4,4v48   C368.001,86.211,366.212,88,364.001,88z" fill="#3a3847"/><path d="M396.001,512c-0.836,0-1.68-0.266-2.398-0.797l-140-104.969c-1.77-1.328-2.129-3.836-0.801-5.602   c1.328-1.773,3.832-2.125,5.598-0.805l140,104.969c1.766,1.328,2.125,3.836,0.805,5.602C398.415,511.453,397.212,512,396.001,512z" fill="#3a3847"/><path d="M239.896,394.961c-0.836,0-1.676-0.258-2.398-0.805L73.599,271.203   c-1.766-1.328-2.125-3.836-0.797-5.609c1.324-1.766,3.832-2.113,5.602-0.797l163.898,122.969c1.766,1.32,2.125,3.828,0.797,5.594   C242.313,394.406,241.11,394.961,239.896,394.961z" fill="#3a3847"/><path d="M417.681,504c-0.867,0-1.781-0.281-2.477-0.797l-145.5-109.047c-1.766-1.32-2.125-3.828-0.805-5.594   c1.336-1.766,3.844-2.109,5.602-0.797l145.313,108.891c1.094,0.719,1.828,1.945,1.828,3.344   C421.642,502.211,419.892,504,417.681,504z" fill="#3a3847"/><path d="M255.997,382.891c-0.836,0-1.676-0.258-2.398-0.797L105.603,271.203   c-1.766-1.328-2.129-3.828-0.805-5.602c1.324-1.762,3.824-2.129,5.602-0.805l148,110.898c1.773,1.328,2.125,3.836,0.797,5.602   C258.415,382.344,257.212,382.891,255.997,382.891z" fill="#3a3847"/><path d="M409.603,512c-2.211,0-4-1.789-4-4s1.789-4,4-4c2.242,0,4-1.758,4-4c0-2.211,1.789-4,4-4   s4,1.789,4,4C421.603,506.617,416.22,512,409.603,512z" fill="#3a3847"/><path d="M409.603,512h-13.602c-2.211,0-4-1.789-4-4s1.789-4,4-4h13.602c2.211,0,4,1.789,4,4   S411.813,512,409.603,512z" fill="#3a3847"/><path d="M116.005,512c-1.219,0-2.418-0.547-3.203-1.602c-1.328-1.766-0.969-4.273,0.801-5.602l320-240   c1.758-1.316,4.266-0.965,5.602,0.797c1.32,1.773,0.961,4.281-0.805,5.609l-320,240C117.681,511.734,116.841,512,116.005,512z" fill="#3a3847"/><path d="M94.403,504c-1.219,0-2.418-0.547-3.203-1.602c-1.328-1.766-0.969-4.273,0.801-5.602l309.602-232   c1.766-1.316,4.266-0.965,5.602,0.805c1.32,1.773,0.961,4.273-0.805,5.602l-309.602,232C96.079,503.734,95.235,504,94.403,504z" fill="#3a3847"/><path d="M102.399,512c-6.617,0-12-5.383-12-12c0-2.211,1.789-4,4-4s4,1.789,4,4c0,2.203,1.793,4,4,4   c2.211,0,4,1.789,4,4S104.61,512,102.399,512z" fill="#3a3847"/><path d="M116.001,512h-13.602c-2.211,0-4-1.789-4-4s1.789-4,4-4h13.602c2.211,0,4,1.789,4,4   S118.212,512,116.001,512z" fill="#3a3847"/><path d="M327.751,328h-143.5c-2.211,0-4-1.789-4-4s1.789-4,4-4h143.5c2.211,0,4,1.789,4,4   S329.962,328,327.751,328z" fill="#3a3847"/><path d="M307.267,344H204.169c-2.211,0-4-1.789-4-4s1.789-4,4-4h103.098c2.211,0,4,1.789,4,4   S309.478,344,307.267,344z" fill="#3a3847"/><path d="M321.329,456H191.071c-2.211,0-4-1.789-4-4s1.789-4,4-4h130.258c2.211,0,4,1.789,4,4   S323.54,456,321.329,456z" fill="#3a3847"/><path d="M342.665,472H169.337c-2.211,0-4-1.789-4-4s1.789-4,4-4h173.328c2.211,0,4,1.789,4,4   S344.876,472,342.665,472z" fill="#3a3847"/><path d="M436.001,160h-32c-2.211,0-4-1.789-4-4s1.789-4,4-4h32c2.211,0,4,1.789,4,4S438.212,160,436.001,160   z" fill="#3a3847"/><path d="M404.001,176c-2.211,0-4-1.789-4-4v-16c0-2.211,1.789-4,4-4s4,1.789,4,4v16   C408.001,174.211,406.212,176,404.001,176z" fill="#3a3847"/><path d="M436.001,176h-32c-2.211,0-4-1.789-4-4s1.789-4,4-4h32c2.211,0,4,1.789,4,4S438.212,176,436.001,176   z" fill="#3a3847"/><path d="M436.001,176c-2.211,0-4-1.789-4-4v-16c0-2.211,1.789-4,4-4s4,1.789,4,4v16   C440.001,174.211,438.212,176,436.001,176z" fill="#3a3847"/><path d="M404.001,160c-0.602,0-1.211-0.137-1.789-0.422l-48-24c-1.977-0.988-2.773-3.391-1.789-5.367   c0.992-1.973,3.391-2.766,5.367-1.789l48,24c1.977,0.988,2.773,3.391,1.789,5.367C406.876,159.191,405.462,160,404.001,160z" fill="#3a3847"/><path d="M436.001,160c-0.602,0-1.211-0.137-1.789-0.422l-48-24c-1.977-0.988-2.773-3.391-1.789-5.367   c0.992-1.973,3.398-2.766,5.367-1.789l48,24c1.977,0.988,2.773,3.391,1.789,5.367C438.876,159.191,437.462,160,436.001,160z" fill="#3a3847"/><path d="M404.001,176c-0.594,0-1.195-0.129-1.758-0.406l-48-23.52c-1.984-0.973-2.805-3.371-1.836-5.355   c0.984-1.98,3.398-2.793,5.352-1.832l48,23.52c1.984,0.973,2.805,3.371,1.836,5.355C406.899,175.176,405.478,176,404.001,176z" fill="#3a3847"/><path d="M388.001,136h-32c-2.211,0-4-1.789-4-4s1.789-4,4-4h32c2.211,0,4,1.789,4,4S390.212,136,388.001,136   z" fill="#3a3847"/><path d="M356.001,152.48c-2.211,0-4-1.789-4-4V132c0-2.211,1.789-4,4-4s4,1.789,4,4v16.48   C360.001,150.691,358.212,152.48,356.001,152.48z" fill="#3a3847"/><path d="M436.001,248h-32c-2.211,0-4-1.789-4-4s1.789-4,4-4h32c2.211,0,4,1.789,4,4S438.212,248,436.001,248   z" fill="#3a3847"/><path d="M404.001,248c-0.602,0-1.211-0.137-1.789-0.422l-48-24c-1.977-0.988-2.773-3.391-1.789-5.367   c0.992-1.98,3.391-2.762,5.367-1.789l48,24c1.977,0.988,2.773,3.391,1.789,5.367C406.876,247.191,405.462,248,404.001,248z" fill="#3a3847"/><path d="M404.001,232c-0.602,0-1.211-0.137-1.789-0.422l-16-8c-1.977-0.988-2.773-3.391-1.789-5.367   c0.992-1.98,3.398-2.762,5.367-1.789l16,8c1.977,0.988,2.773,3.391,1.789,5.367C406.876,231.191,405.462,232,404.001,232z" fill="#3a3847"/><path d="M388.001,224h-32c-2.211,0-4-1.789-4-4s1.789-4,4-4h32c2.211,0,4,1.789,4,4S390.212,224,388.001,224   z" fill="#3a3847"/><path d="M428.001,244c-2.211,0-4-1.789-4-4v-68c0-2.211,1.789-4,4-4s4,1.789,4,4v68   C432.001,242.211,430.212,244,428.001,244z" fill="#3a3847"/><path d="M412.001,244c-2.211,0-4-1.789-4-4v-68c0-2.211,1.789-4,4-4s4,1.789,4,4v68   C416.001,242.211,414.212,244,412.001,244z" fill="#3a3847"/><path d="M364.001,224c-2.211,0-4-1.789-4-4v-67.598c0-2.211,1.789-4,4-4s4,1.789,4,4V220   C368.001,222.211,366.212,224,364.001,224z" fill="#3a3847"/><path d="M380.001,224c-2.211,0-4-1.789-4-4v-59.758c0-2.211,1.789-4,4-4s4,1.789,4,4V220   C384.001,222.211,382.212,224,380.001,224z" fill="#3a3847"/><path d="M436.001,264c-2.211,0-4-1.789-4-4v-16c0-2.211,1.789-4,4-4s4,1.789,4,4v16   C440.001,262.211,438.212,264,436.001,264z" fill="#3a3847"/><path d="M404.001,264c-2.211,0-4-1.789-4-4v-16c0-2.211,1.789-4,4-4s4,1.789,4,4v16   C408.001,262.211,406.212,264,404.001,264z" fill="#3a3847"/><path d="M436.001,264h-32c-2.211,0-4-1.789-4-4s1.789-4,4-4h32c2.211,0,4,1.789,4,4S438.212,264,436.001,264   z" fill="#3a3847"/><path d="M356.001,240c-2.211,0-4-1.789-4-4v-16c0-2.211,1.789-4,4-4s4,1.789,4,4v16   C360.001,238.211,358.212,240,356.001,240z" fill="#3a3847"/><path d="M108.001,160h-32c-2.211,0-4-1.789-4-4s1.789-4,4-4h32c2.211,0,4,1.789,4,4S110.212,160,108.001,160   z" fill="#3a3847"/><path d="M108.001,176c-2.211,0-4-1.789-4-4v-16c0-2.211,1.789-4,4-4s4,1.789,4,4v16   C112.001,174.211,110.212,176,108.001,176z" fill="#3a3847"/><path d="M108.001,176h-32c-2.211,0-4-1.789-4-4s1.789-4,4-4h32c2.211,0,4,1.789,4,4S110.212,176,108.001,176   z" fill="#3a3847"/><path d="M76.001,176c-2.211,0-4-1.789-4-4v-16c0-2.211,1.789-4,4-4s4,1.789,4,4v16   C80.001,174.211,78.212,176,76.001,176z" fill="#3a3847"/><path d="M108.005,160c-1.469,0-2.879-0.809-3.582-2.211c-0.988-1.977-0.188-4.379,1.789-5.367l48-24   c1.969-0.977,4.379-0.188,5.367,1.789s0.188,4.379-1.789,5.367l-48,24C109.216,159.863,108.606,160,108.005,160z" fill="#3a3847"/><path d="M76.005,160c-1.469,0-2.879-0.809-3.582-2.211c-0.988-1.977-0.188-4.379,1.789-5.367l48-24   c1.977-0.977,4.379-0.188,5.367,1.789s0.188,4.379-1.789,5.367l-48,24C77.216,159.863,76.606,160,76.005,160z" fill="#3a3847"/><path d="M108.005,176c-1.477,0-2.898-0.82-3.594-2.238c-0.973-1.98-0.156-4.379,1.824-5.352l48.016-23.527   c2.008-0.961,4.387-0.137,5.348,1.852c0.965,1.984,0.137,4.379-1.848,5.344l-47.984,23.512   C109.196,175.867,108.595,176,108.005,176z" fill="#3a3847"/><path d="M156.001,136h-32c-2.211,0-4-1.789-4-4s1.789-4,4-4h32c2.211,0,4,1.789,4,4S158.212,136,156.001,136   z" fill="#3a3847"/><path d="M156.001,152.48c-2.211,0-4-1.789-4-4V132c0-2.211,1.789-4,4-4s4,1.789,4,4v16.48   C160.001,150.691,158.212,152.48,156.001,152.48z" fill="#3a3847"/><path d="M108.001,248h-32c-2.211,0-4-1.789-4-4s1.789-4,4-4h32c2.211,0,4,1.789,4,4S110.212,248,108.001,248   z" fill="#3a3847"/><path d="M108.005,248c-1.469,0-2.879-0.809-3.582-2.211c-0.988-1.977-0.188-4.379,1.789-5.367l48-24   c1.969-0.977,4.379-0.188,5.367,1.789s0.188,4.379-1.789,5.367l-48,24C109.216,247.863,108.606,248,108.005,248z" fill="#3a3847"/><path d="M108.005,232c-1.469,0-2.879-0.809-3.582-2.211c-0.988-1.977-0.188-4.379,1.789-5.367l16-8   c1.977-0.977,4.379-0.188,5.367,1.789s0.188,4.379-1.789,5.367l-16,8C109.216,231.863,108.606,232,108.005,232z" fill="#3a3847"/><path d="M156.001,224h-32c-2.211,0-4-1.789-4-4s1.789-4,4-4h32c2.211,0,4,1.789,4,4S158.212,224,156.001,224   z" fill="#3a3847"/><path d="M84.001,244c-2.211,0-4-1.789-4-4v-68c0-2.211,1.789-4,4-4s4,1.789,4,4v68   C88.001,242.211,86.212,244,84.001,244z" fill="#3a3847"/><path d="M100.001,244c-2.211,0-4-1.789-4-4v-68c0-2.211,1.789-4,4-4s4,1.789,4,4v68   C104.001,242.211,102.212,244,100.001,244z" fill="#3a3847"/><path d="M148.001,224c-2.211,0-4-1.789-4-4v-67.633c0-2.211,1.789-4,4-4s4,1.789,4,4V220   C152.001,222.211,150.212,224,148.001,224z" fill="#3a3847"/><path d="M132.001,224c-2.211,0-4-1.789-4-4v-59.789c0-2.211,1.789-4,4-4s4,1.789,4,4V220   C136.001,222.211,134.212,224,132.001,224z" fill="#3a3847"/><path d="M76.001,264c-2.211,0-4-1.789-4-4v-16c0-2.211,1.789-4,4-4s4,1.789,4,4v16   C80.001,262.211,78.212,264,76.001,264z" fill="#3a3847"/><path d="M108.001,264c-2.211,0-4-1.789-4-4v-16c0-2.211,1.789-4,4-4s4,1.789,4,4v16   C112.001,262.211,110.212,264,108.001,264z" fill="#3a3847"/><path d="M108.001,264h-32c-2.211,0-4-1.789-4-4s1.789-4,4-4h32c2.211,0,4,1.789,4,4S110.212,264,108.001,264   z" fill="#3a3847"/><path d="M156.001,240c-2.211,0-4-1.789-4-4v-16c0-2.211,1.789-4,4-4s4,1.789,4,4v16   C160.001,238.211,158.212,240,156.001,240z" fill="#3a3847"/><path d="M265.923,80c-0.664,0-1.32-0.164-1.922-0.492l-8-4.387l-8,4.387   c-1.332,0.73-2.988,0.645-4.234-0.246c-1.25-0.883-1.883-2.406-1.633-3.914l1.59-9.598l-6.578-6.711   c-1.051-1.074-1.414-2.645-0.938-4.066c0.473-1.426,1.707-2.465,3.191-2.688l8.93-1.359l4.051-8.625   c1.328-2.805,5.926-2.813,7.238,0l4.055,8.625l8.93,1.359c1.484,0.223,2.719,1.262,3.195,2.688   c0.477,1.422,0.109,2.992-0.938,4.066l-6.578,6.711l1.586,9.598c0.25,1.508-0.383,3.031-1.633,3.914   C267.548,79.754,266.735,80,265.923,80z M256.001,66.559c0.664,0,1.328,0.164,1.922,0.492l2.711,1.484l-0.578-3.484   c-0.211-1.258,0.195-2.543,1.086-3.453l2.531-2.582l-3.313-0.504c-1.32-0.199-2.453-1.043-3.016-2.254L256,53.406l-1.34,2.852   c-0.566,1.211-1.699,2.055-3.02,2.254l-3.313,0.504l2.527,2.582c0.895,0.91,1.301,2.195,1.09,3.453l-0.578,3.484l2.711-1.484   C254.677,66.723,255.337,66.559,256.001,66.559z" fill="#3a3847"/><path d="M332.001,64h-32c-2.211,0-4-1.789-4-4s1.789-4,4-4h32c2.211,0,4,1.789,4,4S334.212,64,332.001,64z" fill="#3a3847"/><path d="M212.001,64h-32c-2.211,0-4-1.789-4-4s1.789-4,4-4h32c2.211,0,4,1.789,4,4S214.212,64,212.001,64z" fill="#3a3847"/></g></g><g transform="matrix(0.1171875 0 0 0.1171875 77 269)" id="L1_2"><path d="m462 40h-160.866c-5.522 0-10 4.477-10 10s4.478 10 10 10h160.866c16.542 0 30 13.458 30 30v242h-472v-242c0-16.542 13.458-30 30-30h161.134c5.522 0 10-4.477 10-10s-4.478-10-10-10h-161.134c-27.57 0-50 22.43-50 50v332c0 27.57 22.43 50 50 50h412c27.57 0 50-22.43 50-50v-332c0-27.57-22.43-50-50-50zm0 412h-412c-16.542 0-30-13.458-30-30v-70h472v70c0 16.542-13.458 30-30 30z" id="XMLID_1119_"/><path d="m99.925 372c-16.542 0-30 13.458-30 30s13.458 30 30 30 30-13.458 30-30-13.458-30-30-30zm0 40c-5.514 0-10-4.486-10-10s4.486-10 10-10 10 4.486 10 10-4.487 10-10 10z" id="XMLID_1192_"/><path d="m432.075 392h-249.086c-5.523 0-10 4.477-10 10s4.477 10 10 10h249.086c5.522 0 10-4.477 10-10s-4.477-10-10-10z" id="XMLID_1245_"/><path d="m204.885 165.677v60.646c0 10.311 5.331 19.544 14.26 24.699 4.465 2.578 9.363 3.867 14.261 3.867 4.897 0 9.795-1.289 14.26-3.867l52.52-30.323c8.929-5.155 14.26-14.389 14.26-24.699s-5.331-19.544-14.26-24.699l-52.52-30.323c-8.928-5.155-19.589-5.155-28.52 0-8.93 5.155-14.261 14.389-14.261 24.699zm20 0c0-4.44 2.98-6.639 4.26-7.379.779-.449 2.337-1.172 4.304-1.172 1.269 0 2.709.302 4.217 1.172l52.52 30.323c3.845 2.22 4.26 5.9 4.26 7.379s-.415 5.159-4.26 7.379l-52.52 30.323c-3.846 2.218-7.239.739-8.52 0-1.28-.74-4.26-2.939-4.26-7.379v-60.646z" id="XMLID_1248_"/><path d="m256.13 60c2.63 0 5.21-1.07 7.07-2.93 1.859-1.86 2.93-4.44 2.93-7.07s-1.07-5.21-2.93-7.07-4.44-2.93-7.07-2.93-5.21 1.07-7.08 2.93c-1.86 1.86-2.92 4.44-2.92 7.07s1.06 5.21 2.92 7.07c1.87 1.86 4.45 2.93 7.08 2.93z" id="XMLID_1249_"/></g><g transform="matrix(0.1171875 0 0 0.1171875 272 199)" id="L1_3"><path d="m440.589844 206.675781h-341.171875l327.699219-94.929687c2.546874-.738282 4.695312-2.460938 5.976562-4.78125 1.28125-2.324219 1.585938-5.058594.847656-7.605469l-17.148437-59.199219c-6.851563-23.644531-28.867188-40.160156-53.539063-40.160156-5.199218 0-10.378906.738281-15.402344 2.191406l-307.675781 89.128906c-14.230469 4.121094-26.023437 13.582032-33.214843 26.632813-7.1875 13.050781-8.875 28.078125-4.753907 42.304687l16.753907 57.835938v238.253906c0 30.6875 24.964843 55.652344 55.648437 55.652344h120.164063c5.523437 0 10-4.476562 10-10s-4.476563-10-10-10h-120.160157c-19.660156 0-35.652343-15.992188-35.652343-35.652344v-136.085937h51.230468.023438.019531 78.3125.023437.023438 78.3125.023438.023437 78.3125.023437.019532 105.28125v136.085937c0 19.660156-15.992188 35.652344-35.652344 35.652344h-120.164062c-5.519532 0-10 4.476562-10 10s4.480468 10 10 10h120.164062c30.6875 0 55.652344-24.964844 55.652344-55.652344v-239.671875c0-5.523437-4.476563-10-10-10zm-176.332032 93.585938 42.488282-73.585938h55.261718l-42.484374 73.585938zm-78.359374 0 42.488281-73.585938h55.261719l-42.484376 73.585938zm-78.355469 0 42.484375-73.585938h55.265625l-42.488281 73.585938zm37.179687-129.457031-71.148437-68.335938 53.308593-15.441406c.375.546875.8125 1.0625 1.3125 1.542968l71.148438 68.335938-53.308594 15.441406c-.375-.546875-.816406-1.066406-1.3125-1.542968zm134-125.839844 71.148438 68.335937-53.308594 15.441407c-.375-.546876-.8125-1.066407-1.3125-1.542969l-71.148438-68.335938 53.308594-15.441406c.375.546875.8125 1.0625 1.3125 1.542969zm-75.265625 21.804687 71.148438 68.332031-53.308594 15.445313c-.375-.546875-.8125-1.066406-1.3125-1.542969l-71.148437-68.335937 53.308593-15.441407c.378907.542969.816407 1.0625 1.3125 1.542969zm149.960938-45.367187c3.210937-.929688 6.519531-1.402344 9.835937-1.402344 15.824219 0 29.9375 10.578125 34.328125 25.726562l14.367188 49.589844-40.121094 11.621094c-.378906-.546875-.816406-1.0625-1.316406-1.542969l-71.144531-68.332031zm-328.9375 106.199218c4.609375-8.371093 12.160156-14.433593 21.261719-17.070312l5.875-1.703125c.378906.546875.816406 1.066406 1.3125 1.542969l71.148437 68.335937-88.292969 25.578125-14.367187-49.589844c-2.636719-9.097656-1.546875-18.71875 3.0625-27.09375zm14.480469 99.074219h87.972656l-42.484375 73.585938h-45.488281zm303.65625 73.585938 42.484374-73.585938h45.488282v73.585938zm0 0"/><path d="m303.921875 405.113281c0-3.574219-1.90625-6.875-5-8.660156l-87.855469-50.722656c-3.09375-1.785157-6.90625-1.785157-10 0-3.09375 1.785156-5 5.085937-5 8.660156v101.445313c0 3.570312 1.90625 6.871093 5 8.65625 1.546875.894531 3.273438 1.34375 5 1.34375 1.726563 0 3.453125-.449219 5-1.34375l87.855469-50.71875c3.09375-1.785157 5-5.085938 5-8.660157zm-87.855469 33.402344v-66.804687l57.855469 33.402343zm0 0"/><path d="m234.773438 492c-5.507813 0-10 4.492188-10 10s4.492187 10 10 10c5.511718 0 10-4.492188 10-10s-4.488282-10-10-10zm0 0"/></g><path d="m295.84 146.049-256-144c-4.96-2.784-11.008-2.72-15.904.128-4.928 2.88-7.936 8.128-7.936 13.824v288c0 5.696 3.008 10.944 7.936 13.824 2.496 1.44 5.28 2.176 8.064 2.176 2.688 0 5.408-.672 7.84-2.048l256-144c5.024-2.848 8.16-8.16 8.16-13.952s-3.136-11.104-8.16-13.952z" transform="matrix(0.18749941885471344 0 0 0.18749941885471344 27 205)" id="L1_4"/><g transform="matrix(1.2603188753128052 0 0 1.2603188753128052 140 200)" id="L1_5"><path d="M17.991,40.976c0,3.662-2.969,6.631-6.631,6.631l0,0c-3.662,0-6.631-2.969-6.631-6.631V6.631C4.729,2.969,7.698,0,11.36,0   l0,0c3.662,0,6.631,2.969,6.631,6.631V40.976z"/><path d="M42.877,40.976c0,3.662-2.969,6.631-6.631,6.631l0,0c-3.662,0-6.631-2.969-6.631-6.631V6.631   C29.616,2.969,32.585,0,36.246,0l0,0c3.662,0,6.631,2.969,6.631,6.631V40.976z"/></g><g transform="matrix(0.1171875 0 0 0.1171875 278 86)" id="L1_6"><g><path d="m481.389 380.068-161.715-103.957v-55.221l161.715-103.957c9.983-6.417 23.111.75 23.111 12.618v222.899c0 25.476-13.129 34.035-23.111 27.618z" fill="#d16161"/><path d="m481.389 365.068-161.715-103.957v30l161.715 103.957c9.983 6.417 23.111-.75 23.111-12.618v-30c0 11.868-13.129 19.035-23.111 12.618z" fill="#ae3244"/><path d="m381.285 118.513c0-16.5-13.5-30-30-30h-313.785c-3.503 0-6.868.614-10 1.73l-5 318.243 357.055-5c1.116-3.132 1.73-6.497 1.73-10z" fill="#ff8086"/><path d="m27.5 388.487v-298.243c-11.621 4.142-20 15.273-20 28.27v274.973c0 16.5 13.5 30 30 30h313.785c12.997 0 24.127-8.379 28.27-20h-337.055c-8.25 0-15-6.75-15-15z" fill="#d16161"/><path d="m275.428 243.382-129.674-83.36c-1.01-.649-2.054-1.153-3.111-1.533l-10 185.524c0 5.538 6.127 8.883 10.785 5.888l138.824-92.814c.371-5.184-1.886-10.531-6.824-13.705z" fill="#f5fcff"/><path d="m142.643 334.013v-175.524c-9.395-3.378-20 3.485-20 14.151v166.72c0 11.867 13.129 19.035 23.111 12.618l129.674-83.36c4.247-2.73 6.505-7.07 6.824-11.53l-128.824 82.814c-4.659 2.994-10.785-.351-10.785-5.889z" fill="#dce6eb"/></g><path d="m351.285 430.987h-313.785c-20.678 0-37.5-16.822-37.5-37.5v-274.974c0-20.678 16.822-37.5 37.5-37.5h75.143c4.143 0 7.5 3.358 7.5 7.5s-3.357 7.5-7.5 7.5h-75.143c-12.406 0-22.5 10.093-22.5 22.5v274.974c0 12.407 10.094 22.5 22.5 22.5h313.785c12.406 0 22.5-10.093 22.5-22.5v-159.487c0-4.142 3.357-7.5 7.5-7.5s7.5 3.358 7.5 7.5v91.52l96.71 63.272c3.328 2.139 6.425.882 7.599.241 1.175-.641 3.906-2.566 3.906-6.583v-252.9c0-4.017-2.731-5.942-3.906-6.583s-4.269-1.898-7.649.274l-96.659 63.434v17.325c0 4.142-3.357 7.5-7.5 7.5s-7.5-3.358-7.5-7.5v-85.487c0-12.407-10.094-22.5-22.5-22.5h-208.643c-4.143 0-7.5-3.358-7.5-7.5s3.357-7.5 7.5-7.5h208.643c20.678 0 37.5 16.822 37.5 37.5v50.22l88.488-58.071c7.091-4.558 15.67-4.867 23.008-.86 7.337 4.005 11.718 11.388 11.718 19.748v252.9c0 8.36-4.381 15.743-11.719 19.749-7.337 4.006-15.916 3.7-22.948-.822l-88.548-57.931v50.042c0 20.677-16.822 37.499-37.5 37.499zm-201.476-72.7c-7.032 4.52-15.612 4.827-22.949.821s-11.718-11.389-11.718-19.749v-166.719c0-8.36 4.381-15.743 11.718-19.749 7.338-4.006 15.916-3.699 22.949.821l56.726 36.466c3.484 2.24 4.493 6.88 2.253 10.365-2.239 3.484-6.881 4.492-10.364 2.253l-56.726-36.466c-3.378-2.172-6.474-.915-7.649-.274s-3.906 2.566-3.906 6.583v166.72c0 4.017 2.731 5.942 3.906 6.583 1.176.641 4.271 1.898 7.649-.274l129.674-83.36c2.189-1.407 3.445-3.707 3.445-6.309s-1.256-4.901-3.445-6.309l-49.346-31.722c-3.484-2.24-4.493-6.88-2.253-10.365 2.24-3.484 6.883-4.491 10.364-2.253l49.346 31.722c6.471 4.159 10.334 11.235 10.334 18.927s-3.863 14.768-10.334 18.927z"/></g><g transform="matrix(0.11718681454658508 0 0 0.11718681454658508 200 36)" id="L1_7"><g><path d="m37.101 240.173v225.28c0 20.185 16.387 36.549 36.601 36.549h379.429c20.214 0 36.601-16.364 36.601-36.549v-225.28z" fill="#fee77b"/><g><path d="m414.315 281.504h34.029v179.168h-369.854v-179.168h212.993" fill="#ffffff"/><path d="m448.344 470.673h-369.853c-5.523 0-10-4.478-10-10v-179.169c0-5.523 4.477-10 10-10h212.993c5.523 0 10 4.477 10 10 0 5.522-4.477 10-10 10h-202.993v159.169h349.853v-159.169h-24.029c-5.523 0-10-4.478-10-10 0-5.523 4.477-10 10-10h34.029c5.523 0 10 4.477 10 10v179.169c0 5.522-4.477 10-10 10z"/></g><g><path d="m37.101 178.144h452.632v62.029h-452.632z" fill="#6eb4c7"/><g fill="#ffffff"><path d="m198.779 178.144 62.117 62.029h72.154l-62.117-62.029z"/><path d="m363.401 178.144 62.117 62.029h64.215v-7.928l-54.178-54.101z"/><path d="m37.101 178.144v2.931l59.183 59.098h72.145l-62.117-62.029z"/></g></g><g><path d="m23.159 63.058h452.595v62.034h-452.595z" transform="matrix(0.9710000157356262 -0.23899999260902405 0.23899999260902405 0.9710000157356262 -15.256999969482422 62.36399841308594)" fill="#6eb4c7"/><g><path d="m179.272 79.367 75.152 45.427 70.067-17.202-75.151-45.426z" fill="#ffffff"/><path d="m339.134 40.121 75.151 45.426 62.358-15.309-1.896-7.699-65.546-39.62z" fill="#ffffff"/><g><path d="m22.27 117.912.701 2.846 71.6 43.28 70.059-17.2-75.151-45.426z" fill="#ffffff"/><path d="m489.733 168.144h-369.944l359.238-88.194c2.577-.633 4.796-2.264 6.17-4.533 1.374-2.271 1.79-4.993 1.155-7.569l-1.896-7.699c0-.001-12.935-52.536-12.935-52.536-1.319-5.36-6.734-8.638-12.094-7.321l-439.541 107.908c-2.577.633-4.796 2.264-6.17 4.533-.945 1.561-1.436 3.335-1.445 5.129-.004.816.092 1.635.29 2.44l14.541 59.061v286.09c0 25.667 20.905 46.549 46.602 46.549h379.429c25.696 0 46.601-20.882 46.601-46.549v-287.31c-.001-5.521-4.478-9.999-10.001-9.999zm-10 39.983-20.011-19.983h20.011zm-48.316-19.983 42.089 42.029h-43.85l-42.089-42.029zm-94.229 42.03-42.089-42.029h64.164l42.089 42.029zm-70.393-42.03 42.089 42.029h-43.849l-42.089-42.029zm-94.228 42.03-42.089-42.029h64.163l42.089 42.029zm-84.721-118.064 50.921 30.78-42.563 10.45-50.922-30.78zm89.794-22.045 50.922 30.78-62.3 15.295-50.921-30.78zm70.067-17.201 50.921 30.78-42.572 10.452-50.922-30.78zm89.795-22.045 50.921 30.78-62.299 15.295-50.922-30.78zm70.067-17.202 50.922 30.78-42.574 10.452-50.921-30.78zm-338.86 126.473-24.288 5.963-5.971-24.253zm-21.608 45.103 25.017 24.981h-25.017zm11.231-17.049h43.841l42.089 42.029h-43.84zm400.936-146.646-24.204-14.631 19.428-4.77zm20.465 423.956c0 14.639-11.933 26.549-26.601 26.549h-379.429c-14.668 0-26.602-11.91-26.602-26.549v-215.28h432.632z"/></g></g></g><g><path d="" fill="#ffffff"/><path d="m356.371 291.503c-1.957-.008-3.921-.592-5.55-1.69-8.994-6.118-3.184-20.138 7.5-18.109 11.732 2.575 10.048 19.547-1.95 19.799z"/></g></g><g><path d="m311.014 360.954-55.752-32.143c-7.798-4.496-17.54 1.132-17.54 10.134v64.285c0 9.001 9.742 14.63 17.54 10.134l55.752-32.143c7.806-4.5 7.806-15.766 0-20.267z" fill="#ff5d5d"/><path d="m249.419 424.963c-3.728 0-7.456-.982-10.853-2.945-6.79-3.922-10.843-10.945-10.843-18.787v-64.285c0-7.841 4.053-14.863 10.842-18.786 6.79-3.923 14.899-3.927 21.691-.012l55.752 32.144c6.801 3.921 10.861 10.948 10.86 18.798s-4.061 14.877-10.861 18.797l-55.751 32.142c-3.393 1.955-7.115 2.934-10.837 2.934zm.001-87.732c-.284 0-.568.082-.85.245-.563.325-.848.819-.848 1.469v64.285c0 .65.285 1.145.848 1.47.563.326 1.134.326 1.696.001l55.753-32.143c.564-.325.85-.819.85-1.471 0-.65-.286-1.146-.85-1.471l-55.752-32.143c-.281-.161-.564-.242-.847-.242z"/></g></g><path d="m22.441 2.1a1 1 0 0 0 -1.05.1l-6.691 5.154v-4.354a1 1 0 0 0 -1.609-.793l-11.7 9a1 1 0 0 0 0 1.586l11.7 9a1 1 0 0 0 1.609-.793v-4.354l6.691 5.147a1 1 0 0 0 1.609-.793v-18a1 1 0 0 0 -.559-.9z" transform="matrix(2.5 0 0 2.5 60 89)" id="L1_8"/><path d="M64.702,30.366L37.12,14.442c-0.995-0.574-2.221-0.574-3.217,0s-1.609,1.639-1.609,2.787v13.072L4.827,14.442   c-0.997-0.574-2.222-0.574-3.218,0S0,16.081,0,17.229v31.849c0,1.148,0.613,2.211,1.609,2.785c0.498,0.287,1.053,0.432,1.608,0.432   s1.111-0.145,1.609-0.432l27.466-15.857v13.072c0,1.148,0.612,2.211,1.608,2.785c0.498,0.287,1.055,0.432,1.609,0.432   s1.111-0.145,1.607-0.432l27.582-15.924c0.996-0.574,1.609-1.637,1.609-2.787C66.311,32.004,65.698,30.94,64.702,30.366z" transform="matrix(0.9048818349838257 0 0 0.9048818349838257 -23 280)" id="L1_9"/><g transform="matrix(0.1171875 0 0 0.1171875 201 290)" id="L1_10"><path d="m347.094 163.359-120-80c-6.137-4.092-14.027-4.472-20.531-.992-6.503 3.48-10.563 10.257-10.563 17.633v160c0 7.376 4.06 14.153 10.562 17.634 6.487 3.472 14.378 3.109 20.531-.992l120-80c5.565-3.71 8.907-9.955 8.907-16.642s-3.342-12.932-8.906-16.641zm-111.094 59.271v-85.26l63.944 42.63z"/><path d="m452 0h-392c-33.084 0-60 26.916-60 60v240c0 33.084 26.916 60 60 60h392c33.084 0 60-26.916 60-60v-240c0-33.084-26.916-60-60-60zm20 300c0 11.028-8.972 20-20 20h-392c-11.028 0-20-8.972-20-20v-240c0-11.028 8.972-20 20-20h392c11.028 0 20 8.972 20 20z"/><path d="m492 432h-299.44c-8.256-23.278-30.487-40-56.56-40s-48.303 16.722-56.56 40h-59.44c-11.046 0-20 8.954-20 20s8.954 20 20 20h59.44c8.256 23.278 30.487 40 56.56 40s48.303-16.722 56.56-40h299.44c11.046 0 20-8.954 20-20s-8.954-20-20-20zm-356 40c-11.028 0-20-8.972-20-20s8.972-20 20-20 20 8.972 20 20-8.972 20-20 20z"/></g><g transform="matrix(0.1171875 0 0 0.1171875 -25 8.000001907348633)" id="L1_11"><path d="M496.327,49.208H15.673C7.018,49.208,0,56.225,0,64.881v382.237c0,8.656,7.018,15.673,15.673,15.673h480.653    c8.656,0,15.673-7.018,15.673-15.673V64.881C512,56.225,504.982,49.208,496.327,49.208z M87.858,431.446H31.347V335.38h56.511    V431.446z M87.858,304.033H31.347v-96.066h56.511V304.033z M87.858,176.621H31.347V80.555h56.511V176.621z M392.794,431.445    H119.205V80.555h273.589V431.445z M480.653,431.446h-56.512V335.38h56.512V431.446z M480.653,304.033h-56.512v-96.066h56.512    V304.033z M480.653,176.621h-56.512V80.555h56.512V176.621z"/><path d="M325.349,242.446l-100.602-58.417c-10.444-6.064-23.544,1.499-23.544,13.554v116.833    c0,12.119,13.164,19.582,23.544,13.554l100.602-58.417C335.742,263.519,335.734,248.477,325.349,242.446z M232.55,287.192v-62.383    l53.716,31.191L232.55,287.192z"/></g><g transform="matrix(0.8823529481887817 0 0 0.8823529481887817 206 129)" id="L1_12"><path d="m53.8467331 41.3004799c-.2167969 0-.4355469-.0585938-.6328125-.1813965-.5629883-.3500977-.7353516-1.0900879-.3852539-1.652832 1.5742188-2.5290527 6.3085938-6.7021484 12.9638672-4.3989258.6259766.2167969.9580078.9001465.7412109 1.5266113-.2163086.626709-.9003906.958252-1.5263672.7414551-6.5297852-2.2602539-9.9960938 3.166748-10.140625 3.3989258-.227539.3652344-.6191406.5661621-1.0200195.5661621z" fill="#33527d"/><g><circle cx="29" cy="34" r="27" fill="#079cff"/><g fill="#ffffff"><path d="m35.7008934 19.0332928c0 3.6369953-2.9467621 6.5755329-6.5753288 6.5755329-3.6372013 0-6.5755329-2.9385376-6.5755329-6.5755329 0-.5052414.0589924-.9936275.1683445-1.4647465.6567307-2.930316 3.2752285-5.1107864 6.4071884-5.1107864 3.1235313 0 5.7420311 2.1804705 6.4071884 5.1107864.1093521.4711189.1681404.9595051.1681404 1.4647465z"/><path d="m35.7008934 48.9641991c0 .5048332-.0587883 1.0018501-.1681404 1.473381-.6651573 2.929493-3.2836571 5.1103745-6.4071884 5.1103745-3.1319599 0-5.7420292-2.1808815-6.4071884-5.1103745-.1093521-.4715309-.1683445-.9685478-.1683445-1.473381 0-3.6287727 2.9383316-6.575531 6.5755329-6.575531 3.6285667 0 6.5753288 2.9467582 6.5753288 6.575531z"/><path d="m20.7399597 34.0026512c0 3.6291847-2.9467583 6.5759468-6.5839605 6.5759468-.5052404 0-.9934216-.0592003-1.4649525-.1685524-2.9214764-.6651573-5.1105804-3.2834511-5.1105804-6.4073944 0-3.1399765 2.1891041-5.7586784 5.1190081-6.4152031.4715309-.1097641.959712-.1685505 1.4565248-.1685505 3.6372022 0 6.5839605 2.9467583 6.5839605 6.5837536z"/><path d="m50.6706619 34.0026512c0 3.1239433-2.1806755 5.7422371-5.1105804 6.4073944-.4715309.1093521-.9599152.1685524-1.4649506.1685524-3.6372032 0-6.5839615-2.9467621-6.5839615-6.5759468 0-3.6369953 2.9467583-6.5837536 6.5839615-6.5837536.4966049 0 .984993.0587864 1.4565239.1685505 2.929905.6565247 5.1190071 3.2752266 5.1190071 6.4152031z"/></g><path d="m29.1255417 39.52631c-3.046875 0-5.5258789-2.4790039-5.5258789-5.526123s2.4790039-5.5261211 5.5258789-5.5261211c3.0473633 0 5.5263672 2.4790039 5.5263672 5.5261211s-2.4790039 5.526123-5.5263672 5.526123zm0-9.5522442c-2.2197266 0-4.0258789 1.8061523-4.0258789 4.0261211s1.8061523 4.026123 4.0258789 4.026123c2.2202148 0 4.0263672-1.8061523 4.0263672-4.026123s-1.8061524-4.0261211-4.0263672-4.0261211z" fill="#33527d"/><path d="m46.7639847 34.0026512c0 2.2651596-.4293938 4.4201393-1.2039032 6.4073944-.4715309.1093521-.9599152.1685524-1.4649506.1685524-3.6372032 0-6.5839615-2.9467621-6.5839615-6.5759468 0-3.6369953 2.9467583-6.5837536 6.5839615-6.5837536.4966049 0 .984993.0587864 1.4565239.1685505.7829361 1.9868431 1.2123299 4.1508694 1.2123299 6.4152031z" fill="#33527d"/><path d="m35.7008934 48.9641991c0 .5048332-.0587883 1.0018501-.1681404 1.473381-1.9870491.7827339-4.1508694 1.203701-6.4071884 1.203701s-4.4201393-.4209671-6.4071884-1.203701c-.1093521-.4715309-.1683445-.9685478-.1683445-1.473381 0-3.6287727 2.9383316-6.575531 6.5755329-6.575531 3.6285667 0 6.5753288 2.9467582 6.5753288 6.575531z" fill="#33527d"/><path d="m20.7399597 34.0026512c0 3.6291847-2.9467583 6.5759468-6.5839605 6.5759468-.5052404 0-.9934216-.0592003-1.4649525-.1685524-.7747164-1.9872551-1.2039042-4.1422348-1.2039042-6.4073944 0-2.2643337.4291878-4.42836 1.2123318-6.4152031.4715309-.1097641.959712-.1685505 1.4565248-.1685505 3.6372023 0 6.5839606 2.9467583 6.5839606 6.5837536z" fill="#33527d"/><path d="m35.7008934 19.0332928c0 3.6369953-2.9467621 6.5755329-6.5753288 6.5755329-3.6372013 0-6.5755329-2.9385376-6.5755329-6.5755329 0-.5052414.0589924-.9936275.1683445-1.4647465 1.9870491-.783144 4.1508694-1.2041092 6.4071884-1.2041092s4.4201393.4209652 6.4071884 1.2041092c.1093521.4711189.1681404.9595051.1681404 1.4647465z" fill="#33527d"/></g></g><g transform="matrix(0.1171877309679985 0 0 0.1171877309679985 -8 119.99999237060547)" id="L1_13"><g><path d="m139.353 454.346h-48.282l-5.851 6.441v19.678c0 5.575 3.757 10.309 8.862 11.814h37.5c6.6 0 12-5.4 12-12v-19.167z" fill="#407093"/><path d="m463.686 455.68h-46.435l-4.12 4.996v19.818c0 5.482 3.606 10.157 8.562 11.786h37.888c6.6 0 12-5.4 12-12v-19.167z" fill="#407093"/><path d="m85.539 480.279v-19.167l6.147-6.766h-45l-6.147 6.766v19.167c0 6.6 5.4 12 12 12h45c-6.6 0-12-5.4-12-12z" fill="#365e7d"/><path d="m413.539 480.279v-19.167l4.48-5.433h-45l-4.48 5.433v19.167c0 6.6 5.4 12 12 12h45c-6.6 0-12-5.4-12-12z" fill="#365e7d"/><path d="m326.039 38.428-12.686 2.585-47.5-12.5-9.792-8.817c-77.285 0-139.937 62.652-139.937 139.937 0 51.792 28.138 97.008 69.959 121.206h11.271l46.333 11.507 12.374 7.224c77.285 0 139.937-62.652 139.937-139.937-.001-51.791-28.139-97.008-69.959-121.205zm-68.979 166.539c-25.037 0-45.333-20.297-45.333-45.333s20.297-45.334 45.333-45.334c25.037 0 45.333 20.296 45.333 45.333s-20.295 45.334-45.333 45.334z" fill="#b5dcff"/><path d="m179.02 159.633c0-59.417 37.034-110.178 89.275-130.478l-2.442-.643-9.792-8.817c-77.285 0-139.937 62.652-139.937 139.937 0 51.792 28.138 97.008 69.959 121.206h11.271l46.333 11.507 12.374 7.224c10.813 0 21.339-1.228 31.448-3.55-62.142-14.268-108.489-69.914-108.489-136.386z" fill="#8bcaff"/><path d="m497.603 364.513h-442.522l-6.016 5.054v75.226c0 7.336 4.459 13.63 10.816 16.319h427.465c9.508 0 17.215-7.708 17.215-17.215v-73.118z" fill="#4a80aa"/><path d="m49.56 443.897v-73.118l7.459-6.266h-42l-7.459 6.266v73.118c0 9.508 7.708 17.215 17.215 17.215h42c-9.507 0-17.215-7.707-17.215-17.215z" fill="#407093"/><path d="m280.624 117.356 45.414-78.928c-20.586-11.911-44.485-18.731-69.978-18.731l-1 90.785c9.309-.001 18.037 2.511 25.564 6.874z" fill="#dbedff"/><path d="m287.48 23.252c-10.101-2.318-20.615-3.556-31.419-3.556l-.165 14.988c9.91-5.011 20.494-8.883 31.584-11.432z" fill="#b5dcff"/><path d="m257.06 207.786c-9.309 0-18.036-2.512-25.564-6.875l-45.414 79.928c20.586 11.911 44.485 18.731 69.978 18.731z" fill="#dbedff"/><path d="m256.06 299.57.162-14.826c-19.359-9.726-36.149-23.808-49.082-40.967l-21.058 37.062c20.586 11.911 44.485 18.731 69.978 18.731z" fill="#b5dcff"/><path d="m266.401 109.532c-21.318 6.679-36.833 26.609-36.833 50.101s15.515 43.422 36.833 50.101c23.265-4.795 40.811-25.437 40.811-50.101s-17.546-45.305-40.811-50.101zm-10.341 71.254c-11.664 0-21.152-9.489-21.152-21.152s9.489-21.152 21.152-21.152 21.152 9.489 21.152 21.152-9.488 21.152-21.152 21.152z" fill="#407093"/><path d="m230.575 159.633c0-23.775 16.305-43.812 38.319-49.521-4.103-1.064-8.403-1.632-12.833-1.632-28.206 0-51.152 22.947-51.152 51.152s22.947 51.152 51.152 51.152c4.43 0 8.731-.568 12.833-1.632-22.015-5.707-38.319-25.744-38.319-49.519z" fill="#365e7d"/><path d="m385.853 364.513h-209.633l-9.385 6.044v15.711c0 8.524 6.096 15.617 14.165 17.177h197.783c9.508 0 17.215-7.708 17.215-17.215v-15.451z" fill="#60b9fe"/><path d="m167.123 386.231v-15.451l9.729-6.266h-51l-9.729 6.266v15.451c0 9.508 7.708 17.215 17.215 17.215h51c-9.507 0-17.215-7.708-17.215-17.215z" fill="#1ca8ff"/><path d="m466.603 367.763h-13.209l-2.764 2.273v29.125c0 5.257 3.296 9.777 7.922 11.608 6.508-.109 11.8-5.458 11.8-11.99v-28z" fill="#ff76aa"/><path d="m451.018 398.779v-28l3.668-3.016h-19.333l-3.668 3.016v28c0 6.6 5.4 12 12 12h14.667c.798 0 1.578-.083 2.333-.233-5.493-1.094-9.667-5.965-9.667-11.767z" fill="#ff5595"/><path d="m487.345 338.112h-462.569c-9.508 0-17.215 7.708-17.215 17.215v15.451h497v-15.451c-.001-9.507-7.708-17.215-17.216-17.215z" fill="#dbedff"/><path d="m66.776 338.112h-42c-9.508 0-17.215 7.708-17.215 17.215v15.452h42v-15.452c-.001-9.507 7.707-17.215 17.215-17.215z" fill="#b5dcff"/></g><g><path d="m39.249 424.375c-4.143 0-7.5 3.357-7.5 7.5s3.357 7.5 7.5 7.5h4.5c4.143 0 7.5-3.357 7.5-7.5s-3.357-7.5-7.5-7.5z"/><path d="m67.874 424.375c-4.143 0-7.5 3.357-7.5 7.5s3.357 7.5 7.5 7.5h4.5c4.143 0 7.5-3.357 7.5-7.5s-3.357-7.5-7.5-7.5z"/><path d="m96.499 424.375c-4.143 0-7.5 3.357-7.5 7.5s3.357 7.5 7.5 7.5h4.5c4.143 0 7.5-3.357 7.5-7.5s-3.357-7.5-7.5-7.5z"/><path d="m324.86 431.875c0-4.143-3.357-7.5-7.5-7.5h-122.721c-4.143 0-7.5 3.357-7.5 7.5s3.357 7.5 7.5 7.5h122.721c4.143 0 7.5-3.358 7.5-7.5z"/><path d="m255.999 130.993c-15.799 0-28.652 12.854-28.652 28.652s12.854 28.652 28.652 28.652 28.652-12.854 28.652-28.652-12.853-28.652-28.652-28.652zm0 42.304c-7.528 0-13.652-6.124-13.652-13.652s6.124-13.652 13.652-13.652 13.652 6.124 13.652 13.652-6.124 13.652-13.652 13.652z"/><path d="m487.284 330.625h-462.569c-13.628 0-24.715 11.086-24.715 24.714v88.569c0 13.628 11.087 24.716 24.715 24.716h8.264v11.666c0 10.752 8.748 19.5 19.5 19.5h79.042c10.752 0 19.5-8.748 19.5-19.5v-11.666h87.479c4.143 0 7.5-3.357 7.5-7.5s-3.357-7.5-7.5-7.5c-6.708 0-207.081 0-213.785 0-5.356 0-9.715-4.358-9.715-9.716v-65.618h93.563v7.952c0 13.628 11.087 24.715 24.715 24.715h245.444c13.628 0 24.715-11.087 24.715-24.715v-7.952h20.688v20.5c0 10.752 8.748 19.5 19.5 19.5h14.667c10.752 0 19.5-8.748 19.5-19.5v-20.5h19.208v65.618c0 5.357-4.358 9.716-9.715 9.716-4.546 0-202.977 0-213.784 0-4.143 0-7.5 3.357-7.5 7.5s3.357 7.5 7.5 7.5h87.479v11.666c0 10.752 8.748 19.5 19.5 19.5h79.042c10.752 0 19.5-8.748 19.5-19.5v-11.666h8.264c13.628 0 24.715-11.088 24.715-24.716 0-15.739 0-78.407 0-88.569-.002-13.628-11.089-24.714-24.717-24.714zm-439.305 138h88.042v11.666c0 2.439-2.061 4.5-4.5 4.5h-79.042c-2.439 0-4.5-2.061-4.5-4.5zm416.042 11.666c0 2.439-2.061 4.5-4.5 4.5h-79.042c-2.439 0-4.5-2.061-4.5-4.5v-11.666h88.042zm-75.584-94.048c0 5.356-4.358 9.715-9.715 9.715h-245.445c-5.356 0-9.715-4.358-9.715-9.715v-7.952h264.874v7.952zm74.354 12.548c0 2.439-2.061 4.5-4.5 4.5h-14.667c-2.439 0-4.5-2.061-4.5-4.5v-20.5h23.667zm34.208-35.5c-10.212 0-471.809 0-481.999 0v-7.951c0-5.356 4.358-9.715 9.715-9.715h462.569c5.356 0 9.715 4.358 9.715 9.715z"/><path d="m387.407 143.074c.513 4.11 4.254 7.021 8.371 6.514 4.11-.513 7.026-4.261 6.514-8.371-9.129-73.161-71.664-129.009-146.292-129.009-81.297 0-147.438 66.14-147.438 147.437 0 80.637 65.403 147.438 147.438 147.438 74.224 0 137.115-55.462 146.292-129.009.513-4.11-2.403-7.858-6.514-8.371-4.1-.509-7.858 2.402-8.371 6.514-7.93 63.562-60.542 112.075-123.907 115.647l-.001-74.062c28.81-3.696 51.152-28.358 51.152-58.156 0-18.977-9.067-35.87-23.089-46.597l37.026-64.132c31.511 20.681 53.87 54.486 58.819 94.157zm-263.844 16.571c0-70.508 55.387-128.317 124.938-132.22v74.063c-28.81 3.696-51.153 28.358-51.153 58.156 0 18.978 9.068 35.87 23.09 46.598l-37.02 64.121c-36.024-23.694-59.855-64.472-59.855-110.718zm124.937 132.221c-17.645-.993-35.378-5.511-52.107-13.978l37.019-64.12c4.412 1.848 9.66 3.339 15.089 4.045v74.053zm51.151-132.221c0 24.07-19.582 43.652-43.652 43.652-23.866 0-43.652-19.421-43.652-43.652 0-24.07 19.582-43.652 43.652-43.652h.004c23.91.003 43.648 19.467 43.648 43.652zm-21.064-54.123c-4.474-1.874-9.78-3.357-15.087-4.045v-74.049c18.059 1.015 35.693 5.686 52.104 13.978z"/></g></g></defs><g fi:class="KUsePattern" opacity="0.44"><pattern id="pattern_L1_0" width="350" height="350" patternUnits="userSpaceOnUse"><use xlink:href="#L1_0" x="-350" y="-350"/><use xlink:href="#L1_0" x="0" y="-350"/><use xlink:href="#L1_0" x="350" y="-350"/><use xlink:href="#L1_0" x="-350" y="0"/><use xlink:href="#L1_0" x="0" y="0"/><use xlink:href="#L1_0" x="350" y="0"/><use xlink:href="#L1_0" x="-350" y="350"/><use xlink:href="#L1_0" x="0" y="350"/><use xlink:href="#L1_0" x="350" y="350"/></pattern><rect x="0" y="0" width="100%" height="100%" fill="url(#pattern_L1_0)"/></g><g fi:class="KUsePattern" opacity="0.4"><pattern id="pattern_L1_1" width="350" height="350" patternUnits="userSpaceOnUse"><use xlink:href="#L1_1" x="-350" y="-350"/><use xlink:href="#L1_1" x="0" y="-350"/><use xlink:href="#L1_1" x="350" y="-350"/><use xlink:href="#L1_1" x="-350" y="0"/><use xlink:href="#L1_1" x="0" y="0"/><use xlink:href="#L1_1" x="350" y="0"/><use xlink:href="#L1_1" x="-350" y="350"/><use xlink:href="#L1_1" x="0" y="350"/><use xlink:href="#L1_1" x="350" y="350"/></pattern><rect x="0" y="0" width="100%" height="100%" fill="url(#pattern_L1_1)"/></g><g fi:class="KUsePattern" opacity="0.62"><pattern id="pattern_L1_2" width="350" height="350" patternUnits="userSpaceOnUse"><use xlink:href="#L1_2" x="-350" y="-350"/><use xlink:href="#L1_2" x="0" y="-350"/><use xlink:href="#L1_2" x="350" y="-350"/><use xlink:href="#L1_2" x="-350" y="0"/><use xlink:href="#L1_2" x="0" y="0"/><use xlink:href="#L1_2" x="350" y="0"/><use xlink:href="#L1_2" x="-350" y="350"/><use xlink:href="#L1_2" x="0" y="350"/><use xlink:href="#L1_2" x="350" y="350"/></pattern><rect x="0" y="0" width="100%" height="100%" fill="url(#pattern_L1_2)"/></g><g fi:class="KUsePattern"><pattern id="pattern_L1_3" width="350" height="350" patternUnits="userSpaceOnUse"><use xlink:href="#L1_3" x="-350" y="-350"/><use xlink:href="#L1_3" x="0" y="-350"/><use xlink:href="#L1_3" x="350" y="-350"/><use xlink:href="#L1_3" x="-350" y="0"/><use xlink:href="#L1_3" x="0" y="0"/><use xlink:href="#L1_3" x="350" y="0"/><use xlink:href="#L1_3" x="-350" y="350"/><use xlink:href="#L1_3" x="0" y="350"/><use xlink:href="#L1_3" x="350" y="350"/></pattern><rect x="0" y="0" width="100%" height="100%" fill="url(#pattern_L1_3)"/></g><g fi:class="KUsePattern" opacity="0.19"><pattern id="pattern_L1_4" width="350" height="350" patternUnits="userSpaceOnUse"><use xlink:href="#L1_4" x="-350" y="-350"/><use xlink:href="#L1_4" x="0" y="-350"/><use xlink:href="#L1_4" x="350" y="-350"/><use xlink:href="#L1_4" x="-350" y="0"/><use xlink:href="#L1_4" x="0" y="0"/><use xlink:href="#L1_4" x="350" y="0"/><use xlink:href="#L1_4" x="-350" y="350"/><use xlink:href="#L1_4" x="0" y="350"/><use xlink:href="#L1_4" x="350" y="350"/></pattern><rect x="0" y="0" width="100%" height="100%" fill="url(#pattern_L1_4)"/></g><g fi:class="KUsePattern" opacity="0.54"><pattern id="pattern_L1_5" width="350" height="350" patternUnits="userSpaceOnUse"><use xlink:href="#L1_5" x="-350" y="-350"/><use xlink:href="#L1_5" x="0" y="-350"/><use xlink:href="#L1_5" x="350" y="-350"/><use xlink:href="#L1_5" x="-350" y="0"/><use xlink:href="#L1_5" x="0" y="0"/><use xlink:href="#L1_5" x="350" y="0"/><use xlink:href="#L1_5" x="-350" y="350"/><use xlink:href="#L1_5" x="0" y="350"/><use xlink:href="#L1_5" x="350" y="350"/></pattern><rect x="0" y="0" width="100%" height="100%" fill="url(#pattern_L1_5)"/></g><g fi:class="KUsePattern" opacity="0.55"><pattern id="pattern_L1_6" width="350" height="350" patternUnits="userSpaceOnUse"><use xlink:href="#L1_6" x="-350" y="-350"/><use xlink:href="#L1_6" x="0" y="-350"/><use xlink:href="#L1_6" x="350" y="-350"/><use xlink:href="#L1_6" x="-350" y="0"/><use xlink:href="#L1_6" x="0" y="0"/><use xlink:href="#L1_6" x="350" y="0"/><use xlink:href="#L1_6" x="-350" y="350"/><use xlink:href="#L1_6" x="0" y="350"/><use xlink:href="#L1_6" x="350" y="350"/></pattern><rect x="0" y="0" width="100%" height="100%" fill="url(#pattern_L1_6)"/></g><g fi:class="KUsePattern" opacity="0.3"><pattern id="pattern_L1_7" width="350" height="350" patternUnits="userSpaceOnUse"><use xlink:href="#L1_7" x="-350" y="-350"/><use xlink:href="#L1_7" x="0" y="-350"/><use xlink:href="#L1_7" x="350" y="-350"/><use xlink:href="#L1_7" x="-350" y="0"/><use xlink:href="#L1_7" x="0" y="0"/><use xlink:href="#L1_7" x="350" y="0"/><use xlink:href="#L1_7" x="-350" y="350"/><use xlink:href="#L1_7" x="0" y="350"/><use xlink:href="#L1_7" x="350" y="350"/></pattern><rect x="0" y="0" width="100%" height="100%" fill="url(#pattern_L1_7)"/></g><g fi:class="KUsePattern" opacity="0.35"><pattern id="pattern_L1_8" width="350" height="350" patternUnits="userSpaceOnUse"><use xlink:href="#L1_8" x="-350" y="-350"/><use xlink:href="#L1_8" x="0" y="-350"/><use xlink:href="#L1_8" x="350" y="-350"/><use xlink:href="#L1_8" x="-350" y="0"/><use xlink:href="#L1_8" x="0" y="0"/><use xlink:href="#L1_8" x="350" y="0"/><use xlink:href="#L1_8" x="-350" y="350"/><use xlink:href="#L1_8" x="0" y="350"/><use xlink:href="#L1_8" x="350" y="350"/></pattern><rect x="0" y="0" width="100%" height="100%" fill="url(#pattern_L1_8)"/></g><g fi:class="KUsePattern" opacity="0.22"><pattern id="pattern_L1_9" width="350" height="350" patternUnits="userSpaceOnUse"><use xlink:href="#L1_9" x="-350" y="-350"/><use xlink:href="#L1_9" x="0" y="-350"/><use xlink:href="#L1_9" x="350" y="-350"/><use xlink:href="#L1_9" x="-350" y="0"/><use xlink:href="#L1_9" x="0" y="0"/><use xlink:href="#L1_9" x="350" y="0"/><use xlink:href="#L1_9" x="-350" y="350"/><use xlink:href="#L1_9" x="0" y="350"/><use xlink:href="#L1_9" x="350" y="350"/></pattern><rect x="0" y="0" width="100%" height="100%" fill="url(#pattern_L1_9)"/></g><g fi:class="KUsePattern" opacity="0.6"><pattern id="pattern_L1_10" width="350" height="350" patternUnits="userSpaceOnUse"><use xlink:href="#L1_10" x="-350" y="-350"/><use xlink:href="#L1_10" x="0" y="-350"/><use xlink:href="#L1_10" x="350" y="-350"/><use xlink:href="#L1_10" x="-350" y="0"/><use xlink:href="#L1_10" x="0" y="0"/><use xlink:href="#L1_10" x="350" y="0"/><use xlink:href="#L1_10" x="-350" y="350"/><use xlink:href="#L1_10" x="0" y="350"/><use xlink:href="#L1_10" x="350" y="350"/></pattern><rect x="0" y="0" width="100%" height="100%" fill="url(#pattern_L1_10)"/></g><g fi:class="KUsePattern" opacity="0.58"><pattern id="pattern_L1_11" width="350" height="350" patternUnits="userSpaceOnUse"><use xlink:href="#L1_11" x="-350" y="-350"/><use xlink:href="#L1_11" x="0" y="-350"/><use xlink:href="#L1_11" x="350" y="-350"/><use xlink:href="#L1_11" x="-350" y="0"/><use xlink:href="#L1_11" x="0" y="0"/><use xlink:href="#L1_11" x="350" y="0"/><use xlink:href="#L1_11" x="-350" y="350"/><use xlink:href="#L1_11" x="0" y="350"/><use xlink:href="#L1_11" x="350" y="350"/></pattern><rect x="0" y="0" width="100%" height="100%" fill="url(#pattern_L1_11)"/></g><g fi:class="KUsePattern" opacity="0.59"><pattern id="pattern_L1_12" width="350" height="350" patternUnits="userSpaceOnUse"><use xlink:href="#L1_12" x="-350" y="-350"/><use xlink:href="#L1_12" x="0" y="-350"/><use xlink:href="#L1_12" x="350" y="-350"/><use xlink:href="#L1_12" x="-350" y="0"/><use xlink:href="#L1_12" x="0" y="0"/><use xlink:href="#L1_12" x="350" y="0"/><use xlink:href="#L1_12" x="-350" y="350"/><use xlink:href="#L1_12" x="0" y="350"/><use xlink:href="#L1_12" x="350" y="350"/></pattern><rect x="0" y="0" width="100%" height="100%" fill="url(#pattern_L1_12)"/></g><g fi:class="KUsePattern" opacity="0.64"><pattern id="pattern_L1_13" width="350" height="350" patternUnits="userSpaceOnUse"><use xlink:href="#L1_13" x="-350" y="-350"/><use xlink:href="#L1_13" x="0" y="-350"/><use xlink:href="#L1_13" x="350" y="-350"/><use xlink:href="#L1_13" x="-350" y="0"/><use xlink:href="#L1_13" x="0" y="0"/><use xlink:href="#L1_13" x="350" y="0"/><use xlink:href="#L1_13" x="-350" y="350"/><use xlink:href="#L1_13" x="0" y="350"/><use xlink:href="#L1_13" x="350" y="350"/></pattern><rect x="0" y="0" width="100%" height="100%" fill="url(#pattern_L1_13)"/></g></svg>